<svg width="26" height="26" viewBox="0 0 26 26" fill="none" xmlns="http://www.w3.org/2000/svg">
<path d="M13.4266 0.55001C6.5706 0.55001 0.961182 6.16251 0.961182 13.075C0.961182 19.325 5.52351 24.5125 11.482 25.45V16.7H8.31575V13.075H11.482V10.3125C11.482 7.17501 13.3393 5.45001 16.1939 5.45001C17.5526 5.45001 18.9736 5.68751 18.9736 5.68751V8.77501H17.403C15.8573 8.77501 15.3712 9.73751 15.3712 10.725V13.075H18.8365L18.2756 16.7H15.3712V25.45C18.3085 24.9848 20.9833 23.4819 22.9126 21.2126C24.8419 18.9433 25.8986 16.0571 25.8919 13.075C25.8919 6.16251 20.2825 0.55001 13.4266 0.55001Z" fill="white"/>
</svg>
