<svg width="27" height="22" viewBox="0 0 27 22" fill="none" xmlns="http://www.w3.org/2000/svg">
<path d="M26.3158 2.5C25.356 2.9375 24.3214 3.225 23.2494 3.3625C24.3463 2.7 25.194 1.65 25.5928 0.3875C24.5582 1.0125 23.4114 1.45 22.2023 1.7C21.2175 0.625 19.8338 0 18.2632 0C15.3338 0 12.9405 2.4 12.9405 5.3625C12.9405 5.7875 12.9904 6.2 13.0776 6.5875C8.63994 6.3625 4.68842 4.225 2.05823 0.9875C1.59701 1.775 1.33523 2.7 1.33523 3.675C1.33523 5.5375 2.27014 7.1875 3.71612 8.125C2.83108 8.125 2.00836 7.875 1.28537 7.5C1.28537 7.5 1.28537 7.5 1.28537 7.5375C1.28537 10.1375 3.13025 12.3125 5.57346 12.8C5.12471 12.925 4.65102 12.9875 4.16487 12.9875C3.82831 12.9875 3.49174 12.95 3.16764 12.8875C3.84077 15 5.79784 16.575 8.15379 16.6125C6.33385 18.0625 4.02775 18.9125 1.50975 18.9125C1.08593 18.9125 0.662104 18.8875 0.238281 18.8375C2.6067 20.3625 5.42387 21.25 8.44049 21.25C18.2632 21.25 23.6607 13.075 23.6607 5.9875C23.6607 5.75 23.6607 5.525 23.6482 5.2875C24.6953 4.5375 25.5928 3.5875 26.3158 2.5Z" fill="white"/>
</svg>
