<svg width="23" height="24" viewBox="0 0 23 24" fill="none" xmlns="http://www.w3.org/2000/svg">
<path d="M20.302 0.75C20.9632 0.75 21.5974 1.01339 22.0649 1.48223C22.5324 1.95107 22.7951 2.58696 22.7951 3.25V20.75C22.7951 21.413 22.5324 22.0489 22.0649 22.5178C21.5974 22.9866 20.9632 23.25 20.302 23.25H2.8505C2.18929 23.25 1.55517 22.9866 1.08763 22.5178C0.620084 22.0489 0.357422 21.413 0.357422 20.75V3.25C0.357422 2.58696 0.620084 1.95107 1.08763 1.48223C1.55517 1.01339 2.18929 0.75 2.8505 0.75H20.302ZM19.6788 20.125V13.5C19.6788 12.4192 19.2506 11.3828 18.4885 10.6185C17.7264 9.85433 16.6928 9.425 15.615 9.425C14.5555 9.425 13.3214 10.075 12.7231 11.05V9.6625H9.24523V20.125H12.7231V13.9625C12.7231 13 13.4959 12.2125 14.4558 12.2125C14.9186 12.2125 15.3625 12.3969 15.6898 12.7251C16.0171 13.0533 16.2009 13.4984 16.2009 13.9625V20.125H19.6788ZM5.19399 7.7C5.7494 7.7 6.28206 7.47875 6.6748 7.08492C7.06753 6.6911 7.28817 6.15695 7.28817 5.6C7.28817 4.4375 6.35327 3.4875 5.19399 3.4875C4.63527 3.4875 4.09944 3.71007 3.70436 4.10624C3.30929 4.50241 3.08734 5.03973 3.08734 5.6C3.08734 6.7625 4.03471 7.7 5.19399 7.7ZM6.92668 20.125V9.6625H3.47377V20.125H6.92668Z" fill="white"/>
</svg>
