<svg width="26" height="26" viewBox="0 0 26 26" fill="none" xmlns="http://www.w3.org/2000/svg">
<path d="M7.49029 0.5H17.9612C21.9501 0.5 25.1911 3.75 25.1911 7.75V18.25C25.1911 20.1728 24.4294 22.0169 23.0735 23.3765C21.7177 24.7362 19.8787 25.5 17.9612 25.5H7.49029C3.50137 25.5 0.260376 22.25 0.260376 18.25V7.75C0.260376 5.82718 1.0221 3.98311 2.37797 2.62348C3.73384 1.26384 5.5728 0.5 7.49029 0.5ZM7.24099 3C6.05082 3 4.9094 3.47411 4.06782 4.31802C3.22624 5.16193 2.75345 6.30653 2.75345 7.5V18.5C2.75345 20.9875 4.76038 23 7.24099 23H18.2105C19.4007 23 20.5421 22.5259 21.3837 21.682C22.2253 20.8381 22.6981 19.6935 22.6981 18.5V7.5C22.6981 5.0125 20.6911 3 18.2105 3H7.24099ZM19.2701 4.875C19.6833 4.875 20.0797 5.03962 20.3719 5.33265C20.6641 5.62567 20.8282 6.0231 20.8282 6.4375C20.8282 6.8519 20.6641 7.24933 20.3719 7.54235C20.0797 7.83538 19.6833 8 19.2701 8C18.8568 8 18.4605 7.83538 18.1683 7.54235C17.8761 7.24933 17.7119 6.8519 17.7119 6.4375C17.7119 6.0231 17.8761 5.62567 18.1683 5.33265C18.4605 5.03962 18.8568 4.875 19.2701 4.875ZM12.7258 6.75C14.3788 6.75 15.9641 7.40848 17.1329 8.58058C18.3018 9.75268 18.9584 11.3424 18.9584 13C18.9584 14.6576 18.3018 16.2473 17.1329 17.4194C15.9641 18.5915 14.3788 19.25 12.7258 19.25C11.0727 19.25 9.48743 18.5915 8.31858 17.4194C7.14972 16.2473 6.49306 14.6576 6.49306 13C6.49306 11.3424 7.14972 9.75268 8.31858 8.58058C9.48743 7.40848 11.0727 6.75 12.7258 6.75ZM12.7258 9.25C11.7339 9.25 10.7828 9.64509 10.0814 10.3483C9.38013 11.0516 8.98614 12.0054 8.98614 13C8.98614 13.9946 9.38013 14.9484 10.0814 15.6517C10.7828 16.3549 11.7339 16.75 12.7258 16.75C13.7176 16.75 14.6687 16.3549 15.3701 15.6517C16.0714 14.9484 16.4654 13.9946 16.4654 13C16.4654 12.0054 16.0714 11.0516 15.3701 10.3483C14.6687 9.64509 13.7176 9.25 12.7258 9.25Z" fill="white"/>
</svg>
