<svg width="26" height="22" viewBox="0 0 26 22" fill="none" xmlns="http://www.w3.org/2000/svg">
<path d="M23.4576 2.04622C20.6781 -0.680878 16.1563 -0.682314 13.3738 2.04335C13.3534 2.06345 6.91806 8.40181 6.91806 8.40181V4.49057C6.91806 4.09299 6.5889 3.77004 6.18368 3.77004C5.77846 3.77004 5.44931 4.09299 5.44931 4.49057V10.1472C5.44931 10.5447 5.77846 10.8677 6.18368 10.8677H11.949C12.3542 10.8677 12.6834 10.5447 12.6834 10.1472C12.6834 9.74957 12.3542 9.42662 11.949 9.42662H7.94648L14.4052 3.06386L14.4066 3.06243C16.6156 0.8951 20.2085 0.8951 22.4175 3.06243C23.4869 4.11165 24.0764 5.50821 24.0764 6.99233C24.0764 8.47644 23.4869 9.87301 22.4248 10.915L13.289 19.8772C13.1515 20.0135 12.9672 20.0882 12.7711 20.0882C12.5751 20.0882 12.3908 20.0135 12.2518 19.8772L4.20877 11.9858C3.7026 11.4892 3.12914 10.9265 3.12476 10.9222C2.05538 9.87301 1.46583 8.47644 1.46583 6.99233C1.46583 5.50821 2.05538 4.11165 3.12476 3.06243C4.74711 1.46923 7.53979 0.974043 9.48252 1.93427C9.84386 2.11225 10.4495 2.55289 10.4495 2.55289C10.7757 2.78972 11.2351 2.72226 11.4765 2.40218C11.7178 2.08211 11.6491 1.63142 11.3229 1.39459C11.3229 1.39459 10.6177 0.882183 10.1452 0.648226C7.63049 -0.594758 4.16634 0.00520328 2.08902 2.04479C0.741693 3.36672 0 5.12354 0 6.99233C0 8.85967 0.740228 10.6151 2.08463 11.9356C2.09926 11.9499 2.59811 12.4408 3.17303 13.0034L11.2161 20.8948C11.6315 21.3024 12.1845 21.5278 12.7726 21.5278C13.3607 21.5278 13.9137 21.3024 14.3291 20.8948L23.4562 11.9399C24.8035 10.6179 25.5452 8.86111 25.5452 6.99233C25.5466 5.12641 24.8049 3.36815 23.4576 2.04622Z" fill="#FF966E"/>
</svg>
