<?xml version="1.0" encoding="utf-8"?>
<!-- Generator: Adobe Illustrator 24.3.0, SVG Export Plug-In . SVG Version: 6.00 Build 0)  -->
<svg version="1.1" id="Ebene_1" xmlns="http://www.w3.org/2000/svg" xmlns:xlink="http://www.w3.org/1999/xlink" x="0px" y="0px"
	 viewBox="0 0 26 22" style="enable-background:new 0 0 26 22;" xml:space="preserve">
<style type="text/css">
	.st0{fill:#FFFFFF;}
</style>
<path class="st0" d="M23.5,2c-2.8-2.7-7.3-2.7-10.1,0c0,0-6.5,6.4-6.5,6.4V4.5c0-0.4-0.3-0.7-0.7-0.7S5.4,4.1,5.4,4.5v5.7
	c0,0.4,0.3,0.7,0.7,0.7h5.8c0.4,0,0.7-0.3,0.7-0.7c0-0.4-0.3-0.7-0.7-0.7h-4l6.5-6.4l0,0c2.2-2.2,5.8-2.2,8,0c1.1,1,1.7,2.4,1.7,3.9
	c0,1.5-0.6,2.9-1.7,3.9l-9.1,9c-0.1,0.1-0.3,0.2-0.5,0.2c-0.2,0-0.4-0.1-0.5-0.2l-8-7.9c-0.5-0.5-1.1-1.1-1.1-1.1
	C2.1,9.9,1.5,8.5,1.5,7c0-1.5,0.6-2.9,1.7-3.9C4.7,1.5,7.5,1,9.5,1.9c0.4,0.2,1,0.6,1,0.6c0.3,0.2,0.8,0.2,1-0.2
	c0.2-0.3,0.2-0.8-0.2-1c0,0-0.7-0.5-1.2-0.7C7.6-0.6,4.2,0,2.1,2C0.7,3.4,0,5.1,0,7c0,1.9,0.7,3.6,2.1,4.9c0,0,0.5,0.5,1.1,1.1
	l8,7.9c0.4,0.4,1,0.6,1.6,0.6c0.6,0,1.1-0.2,1.6-0.6l9.1-9c1.3-1.3,2.1-3.1,2.1-4.9C25.5,5.1,24.8,3.4,23.5,2z"/>
</svg>
