<svg width="162" height="186" viewBox="0 0 162 186" fill="none" xmlns="http://www.w3.org/2000/svg">
<path d="M149.118 123.445C149.126 131.625 147.516 139.726 144.38 147.284C141.243 154.843 136.642 161.711 130.839 167.495C125.036 173.279 118.146 177.865 110.563 180.991C102.98 184.118 94.8527 185.723 86.6465 185.714C86.2906 185.714 85.9347 185.711 85.5788 185.703C84.0794 185.68 82.599 185.605 81.1262 185.477C69.0526 184.41 57.5511 179.865 48.0235 172.396C38.4959 164.928 31.3537 154.858 27.4674 143.414C23.5811 131.97 23.1186 119.646 26.1362 107.945C29.1538 96.2438 35.5212 85.6702 44.4623 77.5129C53.4034 69.3556 64.5321 63.967 76.492 62.0038C88.452 60.0406 100.727 61.5876 111.82 66.4564C122.913 71.3251 132.346 79.3052 138.968 89.4241C145.591 99.5429 149.118 111.364 149.118 123.445Z" fill="#FF966E"/>
<path opacity="0.1" d="M122.85 100.911C126.766 94.0275 129.322 86.4592 130.38 78.616C122.071 70.6316 111.705 65.0977 100.433 62.628C89.1603 60.1584 77.4219 60.8496 66.5196 64.625C55.6173 68.4004 45.9775 75.1124 38.6694 84.0164C31.3613 92.9204 26.6707 103.668 25.118 115.068C35.3784 124.954 48.736 131.026 62.9526 132.265C64.4255 132.393 65.9058 132.469 67.4052 132.491C67.7611 132.499 68.117 132.503 68.4729 132.503C79.5325 132.514 90.3965 129.595 99.9516 124.044C109.507 118.493 117.409 110.509 122.85 100.911Z" fill="black"/>
<path d="M105.254 41.6374C116.612 41.6374 125.819 32.4602 125.819 21.1395C125.819 9.81883 116.612 0.641602 105.254 0.641602C93.8969 0.641602 84.6898 9.81883 84.6898 21.1395C84.6898 32.4602 93.8969 41.6374 105.254 41.6374Z" fill="#FF6584"/>
<path d="M105.199 35.1404C105.199 50.606 95.9747 56.006 84.5963 56.006C73.2179 56.006 63.994 50.606 63.994 35.1404C63.994 19.6747 84.5963 0 84.5963 0C84.5963 0 105.199 19.6747 105.199 35.1404Z" fill="#F2F2F2"/>
<path d="M83.8458 53.6401L84.0567 40.6968L92.8379 24.6842L84.09 38.6665L84.1846 32.8468L90.2368 21.2617L84.21 31.3066L84.3804 20.8394L90.8611 11.616L84.4072 19.1932L84.5136 0L83.8439 25.4084L83.8991 24.3601L77.3101 14.3076L83.7935 26.3723L83.1794 38.0626L83.1612 37.7521L75.5654 27.1731L83.1381 38.8484L83.0613 40.3104L83.0476 40.3323L83.0541 40.4523L81.4964 70.1112H83.5773L83.8272 54.7919L91.3814 43.1453L83.8458 53.6401Z" fill="#3F3D56"/>
<path d="M154.842 58.2566C149.919 72.9232 139.453 75.1271 128.662 71.5286C117.872 67.9302 110.843 59.8921 115.766 45.2255C120.689 30.559 146.49 18.4164 146.49 18.4164C146.49 18.4164 159.765 43.5901 154.842 58.2566Z" fill="#F2F2F2"/>
<path d="M128.703 69.0478L133.023 56.84L146.448 44.4315L133.701 54.9247L135.644 49.4356L145.071 40.3632L136.158 47.9831L139.651 38.1106L148.733 31.4134L140.201 36.558L146.411 18.3901L137.688 42.2739L138.074 41.2972L135.026 29.6805L137.333 43.1721L133.03 54.0643L133.112 53.7643L129.276 41.3297L132.741 54.7964L132.203 56.1584L132.183 56.175L132.15 56.2909L121.232 83.9248L123.206 84.583L128.319 70.1339L139.19 61.4781L128.703 69.0478Z" fill="#3F3D56"/>
<path d="M52.578 46.4553C58.1582 60.8861 51.4997 69.2314 40.8827 73.3102C30.2656 77.389 19.7104 75.6568 14.1303 61.226C8.55013 46.7951 20.6752 21.0515 20.6752 21.0515C20.6752 21.0515 46.9979 32.0244 52.578 46.4553Z" fill="#F2F2F2"/>
<path d="M39.3289 71.3717L34.8555 59.2187L37.2718 41.1297L34.1539 57.3125L32.1423 51.8479L33.6095 38.8684L31.6104 50.4018L27.9927 40.5738L30.7119 29.6446L27.424 39.0284L20.5983 21.0809L29.1407 45.0296L28.8139 44.0318L19.0388 37.0135L29.4413 45.9471L33.0862 57.0751L32.9575 56.7921L22.053 49.644L33.3316 57.8231L33.7874 59.2149L33.7825 59.2402L33.8317 59.35L43.0794 87.5828L45.0213 86.8371L39.7268 72.4529L42.5736 58.8779L39.3289 71.3717Z" fill="#3F3D56"/>
<path d="M18.1213 142.301C16.8447 144.331 15.1884 144.283 13.6951 143.35C12.2018 142.417 11.4369 140.952 12.7135 138.922C13.9901 136.893 18.318 136 18.318 136C18.318 136 19.3979 140.272 18.1213 142.301Z" fill="#FF966E"/>
<path d="M161.076 108.239C161.312 110.623 159.973 111.596 158.219 111.768C156.465 111.941 154.96 111.249 154.724 108.865C154.488 106.481 157.363 103.135 157.363 103.135C157.363 103.135 160.84 105.855 161.076 108.239Z" fill="#FF966E"/>
<path d="M6.05431 109.301C4.77772 111.331 3.12142 111.284 1.6281 110.35C0.134779 109.417 -0.630071 107.952 0.646513 105.922C1.9231 103.893 6.25101 103 6.25101 103C6.25101 103 7.33089 107.272 6.05431 109.301Z" fill="#FF966E"/>
</svg>
