<svg width="290" height="191" viewBox="0 0 290 191" fill="none" xmlns="http://www.w3.org/2000/svg">
<path d="M179.326 58.592L84.1689 0.527103L67.2657 26.9431C71.8309 29.7783 75.0585 34.2051 76.2616 39.2812C77.4646 44.3574 76.5481 49.6821 73.7072 54.122C70.8662 58.5618 69.7456 58.3068 64.4709 59.5936C70.0122 59.5936 59.4334 59.0928 64.4709 59.5936H72.5309L109.808 58.592V137.717L200.88 190.527L224.755 153.214H179.326V58.592Z" fill="#B7E1D2"/>
<path d="M140.608 145.86C151.718 145.86 160.724 144.529 160.724 142.886C160.724 141.244 151.718 139.913 140.608 139.913C129.498 139.913 120.492 141.244 120.492 142.886C120.492 144.529 129.498 145.86 140.608 145.86Z" fill="#FF966E"/>
<path d="M140.064 54.9298L160.332 32.7601C161.815 31.3108 162.985 29.5964 163.775 27.7148C164.565 25.8332 164.959 23.8213 164.936 21.794C164.912 19.7667 164.472 17.7636 163.639 15.8991C162.806 14.0346 161.597 12.3453 160.081 10.9276C158.565 9.50981 156.772 8.39141 154.804 7.63622C152.836 6.88102 150.732 6.50383 148.612 6.52617C146.491 6.54851 144.396 6.96994 142.446 7.7664C140.496 8.56287 138.73 9.71876 137.247 11.1681C135.731 9.75035 133.938 8.63196 131.97 7.87676C130.002 7.12157 127.898 6.74437 125.778 6.76671C123.657 6.78905 121.562 7.21048 119.612 8.00694C117.662 8.80341 115.896 9.95931 114.413 11.4086C112.93 12.858 111.76 14.5724 110.97 16.4539C110.181 18.3355 109.786 20.3474 109.809 22.3747C109.833 24.4021 110.274 26.4052 111.107 28.2696C111.94 30.1341 113.149 31.8234 114.664 33.2412L137.214 54.9298" fill="#FF966E"/>
<path d="M110.607 59.2654H1.22455V154.096H110.607V59.2654Z" stroke="#3F3D56" stroke-width="2" stroke-miterlimit="10"/>
<path d="M288.225 59.5558H178.842V154.387H288.225V59.5558Z" stroke="#3F3D56" stroke-width="2" stroke-miterlimit="10"/>
<path d="M56.7242 57.2208C64.2431 57.2208 70.3384 51.3929 70.3384 44.2037C70.3384 37.0146 64.2431 31.1866 56.7242 31.1866C49.2053 31.1866 43.11 37.0146 43.11 44.2037C43.11 51.3929 49.2053 57.2208 56.7242 57.2208Z" fill="#FF966E"/>
<path d="M112.191 105.025C112.191 105.025 137.011 82.1293 140.034 64.6015" stroke="#3F3D56" stroke-width="2" stroke-miterlimit="10"/>
<path d="M206.529 115.682C206.529 115.682 145.071 80.6269 147.59 64.6015" stroke="#3F3D56" stroke-width="2" stroke-miterlimit="10"/>
<path d="M143.176 143.389C154.286 143.389 163.293 142.058 163.293 140.416C163.293 138.774 154.286 137.442 143.176 137.442C132.066 137.442 123.06 138.774 123.06 140.416C123.06 142.058 132.066 143.389 143.176 143.389Z" stroke="#3F3D56" stroke-width="2" stroke-miterlimit="10"/>
<path d="M141.036 163.672C149.782 163.672 156.873 162.624 156.873 161.331C156.873 160.039 149.782 158.991 141.036 158.991C132.29 158.991 125.2 160.039 125.2 161.331C125.2 162.624 132.29 163.672 141.036 163.672Z" fill="#FF966E"/>
<path d="M141.036 180.732C146.946 180.732 151.736 180.024 151.736 179.15C151.736 178.277 146.946 177.569 141.036 177.569C135.127 177.569 130.336 178.277 130.336 179.15C130.336 180.024 135.127 180.732 141.036 180.732Z" fill="#FF966E"/>
<path d="M143.176 161.587C151.922 161.587 159.013 160.539 159.013 159.246C159.013 157.953 151.922 156.905 143.176 156.905C134.43 156.905 127.34 157.953 127.34 159.246C127.34 160.539 134.43 161.587 143.176 161.587Z" stroke="#3F3D56" stroke-width="2" stroke-miterlimit="10"/>
<path d="M143.176 179.162C149.086 179.162 153.876 178.454 153.876 177.581C153.876 176.707 149.086 175.999 143.176 175.999C137.267 175.999 132.476 176.707 132.476 177.581C132.476 178.454 137.267 179.162 143.176 179.162Z" stroke="#3F3D56" stroke-width="2" stroke-miterlimit="10"/>
<path d="M65.0535 108.796C70.868 108.796 75.5815 104.289 75.5815 98.7298C75.5815 93.1704 70.868 88.6636 65.0535 88.6636C59.2391 88.6636 54.5256 93.1704 54.5256 98.7298C54.5256 104.289 59.2391 108.796 65.0535 108.796Z" fill="#2F2E41"/>
<path d="M60.0279 103.815C60.0279 103.815 56.5988 111.075 55.619 111.31C54.6392 111.544 63.702 115.759 63.702 115.759C63.702 115.759 65.4166 106.86 66.1514 106.391C66.8862 105.923 60.0279 103.815 60.0279 103.815Z" fill="#9F616A"/>
<path d="M65.1716 109.202C69.0946 109.202 72.2748 106.161 72.2748 102.41C72.2748 98.6592 69.0946 95.6184 65.1716 95.6184C61.2486 95.6184 58.0684 98.6592 58.0684 102.41C58.0684 106.161 61.2486 109.202 65.1716 109.202Z" fill="#9F616A"/>
<path d="M71.1203 154.096H40.9158C41.9258 150.588 43.0054 147.11 43.6133 145.178C43.9204 144.21 44.1072 143.628 44.1072 143.628C44.1072 143.628 66.8873 148.311 67.3748 148.548C67.6491 148.827 67.8921 149.134 68.0999 149.462C68.8123 150.461 69.9489 152.177 71.1203 154.096Z" fill="#2F2E41"/>
<path d="M33.5745 87.89L26.2263 77.117C26.2263 77.117 28.0434 65.816 25.594 67.9238C23.1446 70.0315 22.3695 78.5433 22.3695 78.5433L30.8801 90.9345L33.5745 87.89Z" fill="#9F616A"/>
<path d="M100.198 107.562L106.811 107.094C106.811 107.094 114.649 99.1314 115.139 101.708C115.629 104.284 108.771 109.904 108.771 109.904L99.7081 110.841L100.198 107.562Z" fill="#9F616A"/>
<path d="M51.9449 109.904V107.562C51.9449 107.562 45.5765 103.581 45.8214 102.879C46.0664 102.176 45.3316 101.708 45.3316 101.708C45.3316 101.708 44.5967 100.771 44.5967 100.537C44.5967 100.302 43.617 100.068 43.617 100.068L37.4935 93.2765C37.4935 93.2765 34.0644 86.719 33.3295 86.9532C32.5947 87.1874 28.6757 88.5926 29.1656 89.5294C29.6555 90.4662 43.372 110.607 43.372 110.607C43.372 110.607 44.1069 115.057 45.3316 115.057C46.5563 115.057 51.9449 109.904 51.9449 109.904Z" fill="#57B894"/>
<path d="M68.3559 112.715C68.3559 112.715 73.7445 112.481 73.9894 112.715C74.2344 112.949 77.6635 112.715 77.6635 112.715C77.6635 112.715 86.9712 110.607 87.706 109.904C88.4408 109.202 100.688 106.157 101.178 107.562C101.668 108.968 102.892 111.778 101.668 112.246C100.443 112.715 67.3761 120.677 67.3761 120.677L68.3559 112.715Z" fill="#57B894"/>
<path d="M61.3707 92.3005C63.7767 92.3005 65.7272 90.4356 65.7272 88.1352C65.7272 85.8347 63.7767 83.9698 61.3707 83.9698C58.9648 83.9698 57.0143 85.8347 57.0143 88.1352C57.0143 90.4356 58.9648 92.3005 61.3707 92.3005Z" fill="#2F2E41"/>
<path d="M55.5622 85.8789C55.5622 84.8494 55.9611 83.8563 56.6817 83.0912C57.4024 82.3262 58.3938 81.8435 59.4648 81.7361C59.314 81.7212 59.1626 81.7137 59.011 81.7136C57.8556 81.7136 56.7475 82.1525 55.9306 82.9336C55.1136 83.7148 54.6546 84.7742 54.6546 85.8789C54.6546 86.9837 55.1136 88.0431 55.9306 88.8243C56.7475 89.6054 57.8556 90.0443 59.011 90.0443C59.1626 90.0442 59.314 90.0367 59.4648 90.0217C58.3938 89.9144 57.4024 89.4317 56.6817 88.6666C55.9611 87.9016 55.5622 86.9085 55.5622 85.8789V85.8789Z" fill="#2F2E41"/>
<path d="M66.2783 100.761C70.2883 100.761 73.539 98.8959 73.539 96.5955C73.539 94.295 70.2883 92.4301 66.2783 92.4301C62.2684 92.4301 59.0176 94.295 59.0176 96.5955C59.0176 98.8959 62.2684 100.761 66.2783 100.761Z" fill="#2F2E41"/>
<path d="M57.9459 107.445C57.9459 107.445 55.7415 109.085 55.2516 109.319C54.7617 109.553 51.8225 107.211 51.3326 107.211C50.8427 107.211 44.4743 114.237 44.4743 114.237C44.4743 114.237 45.6578 115.54 44.4743 122.2C44.0304 124.697 43.1498 135.374 43.1498 136.78C43.1498 138.185 38.3508 141.638 42.7597 144.683C47.1686 147.727 68.2334 151.006 68.4783 149.132C68.7233 147.259 66.0289 142.341 67.2536 139.999C68.4783 137.657 68.4783 128.991 68.4783 128.991L69.948 119.858L71.1727 112.598C71.1727 112.598 65.4166 111.075 64.9267 111.075C64.4368 111.075 62.2324 114.354 57.9459 107.445Z" fill="#57B894"/>
<path d="M238.456 96.5684L233.444 96.7542L233.694 102.916L238.706 102.73L238.456 96.5684Z" fill="#FF966E"/>
<path d="M215.846 118.147C215.846 118.147 208.905 114.977 209.016 117.715C209.127 120.454 216.013 122.255 216.013 122.255L215.846 118.147Z" fill="#FFB9B9"/>
<path d="M248.123 154.387H215.199C215.886 151.305 217.193 147.588 218.216 144.909C219.026 142.789 219.653 141.318 219.653 141.318C223.392 137.286 228.819 137.183 233.91 138.179C234.518 138.297 235.123 138.43 235.718 138.579C235.788 138.594 235.857 138.612 235.927 138.63C237.117 138.924 238.273 139.263 239.365 139.602C241.249 140.189 242.949 140.782 244.323 141.185C245.014 141.404 245.724 141.563 246.445 141.66C246.602 141.676 246.761 141.682 246.92 141.678C247.464 141.657 247.841 142.217 248.085 143.195C248.636 145.402 248.509 149.749 248.123 154.387Z" fill="#2F2E41"/>
<path d="M241.628 90.7942C241.628 90.7942 245.444 96.4807 246.932 97.7968C248.419 99.113 244.234 102.011 244.234 102.011L236.744 102.974C236.744 102.974 236.838 96.457 236.452 95.7856C236.066 95.1143 241.628 90.7942 241.628 90.7942Z" fill="#FFB9B9"/>
<path d="M235.117 98.2349C235.117 98.2349 236.661 100.92 238.093 100.867C239.525 100.814 246.932 97.7968 247.248 96.7566C247.565 95.7164 249.702 104.208 249.702 104.208L231.577 134.706L227.156 131.784L229.298 113.878L231.057 104.213L235.117 98.2349Z" fill="#FF966E"/>
<path d="M247.917 125.529C247.168 126.919 246.786 128.463 246.805 130.027C246.807 130.095 246.81 130.164 246.817 130.232C246.988 133.4 248.209 137.064 248.647 139.729C248.964 141.641 248.874 143.036 247.704 143.364C244.868 144.155 248.118 144.72 237.144 148.212C226.171 151.704 224.256 148.69 224.228 148.005C224.2 147.321 225.782 142.12 225.41 141.791C225.038 141.462 220.207 146.097 218.747 145.466C217.287 144.834 218.58 141.358 218.58 141.358C218.58 141.358 221.869 134.037 221.799 132.325C221.73 130.614 226.781 122.542 226.781 122.542L230.216 101.159C230.216 101.159 231.537 98.3676 233.313 97.9589C234.432 97.7366 235.598 97.9393 236.563 98.5241L233.591 104.805L230.455 115.892L230.98 119.986C230.98 119.986 234.626 112.652 237.021 109.82C239.416 106.989 244.523 100.286 244.523 100.286C244.523 100.286 245.715 96.4398 244.815 95.2904C243.915 94.1376 248.569 93.9651 250.553 98.691C251.605 101.196 253.313 104.931 254.382 108.409C255.336 111.49 255.786 114.37 254.842 116.016C253.398 118.531 249.768 121.837 247.917 125.529Z" fill="#2D3CB9"/>
<path opacity="0.1" d="M254.842 116.016C253.398 118.531 249.768 121.837 247.917 125.529C247.433 123.864 246.843 122.141 246.843 122.141C246.843 122.141 244.581 110.568 251.272 107.578C252.381 107.475 253.49 107.772 254.382 108.409C255.336 111.49 255.786 114.37 254.842 116.016Z" fill="black"/>
<path d="M228.279 115.287L222.607 116.868L214.73 117.16L213.92 123.704L226.864 124.596C226.864 124.596 230.097 115.905 228.279 115.287Z" fill="#2D3CB9"/>
<path d="M237.529 137.289C237.529 137.289 229.941 138.493 231.673 140.676C233.405 142.86 240.128 140.564 240.128 140.564L237.529 137.289Z" fill="#FFB9B9"/>
<path opacity="0.1" d="M246.817 130.232C246.988 133.4 248.209 137.065 248.647 139.729C246.229 141.917 243.93 143.846 243.064 143.879C241.274 143.945 238.396 143.709 237.336 144.091C236.276 144.473 235.654 137.983 235.654 137.983C235.654 137.983 236.287 135.902 239.109 134.769C241.014 134.002 244.666 131.923 246.817 130.232Z" fill="black"/>
<path d="M251.189 105.524C251.189 105.524 257.248 104.614 256.92 114.225C256.593 123.836 257.559 129.971 255.122 131.776C252.686 133.58 244.771 141.758 242.981 141.825C241.191 141.891 238.313 141.655 237.253 142.037C236.192 142.419 235.571 135.929 235.571 135.929C235.571 135.929 236.203 133.848 239.026 132.715C241.848 131.582 248.498 127.564 248.442 126.195C248.387 124.826 246.76 120.087 246.76 120.087C246.76 120.087 244.498 108.515 251.189 105.524Z" fill="#2D3CB9"/>
<path d="M236.286 99.2144C240.639 99.2144 244.168 95.8402 244.168 91.6779C244.168 87.5156 240.639 84.1414 236.286 84.1414C231.933 84.1414 228.404 87.5156 228.404 91.6779C228.404 95.8402 231.933 99.2144 236.286 99.2144Z" fill="#FFB9B9"/>
<path d="M230.978 80.8759C230.788 81.0326 230.561 81.1418 230.316 81.1939C230.193 81.2149 230.066 81.1885 229.963 81.1205C229.861 81.0525 229.79 80.9484 229.768 80.831C229.626 81.207 229.363 81.5301 229.016 81.7531C228.647 81.9366 228.078 81.7828 228.025 81.389C227.971 81.688 227.833 81.9672 227.625 82.1963C227.517 82.3059 227.367 82.3702 227.21 82.3753C227.052 82.3803 226.899 82.3257 226.783 82.2232C226.944 83.0658 226.845 83.9322 226.895 84.7874C226.946 85.6425 227.184 86.5491 227.86 87.1114C228.846 87.9315 230.328 87.7291 231.624 87.5737C231.82 87.5344 232.023 87.545 232.214 87.6046C232.699 87.8023 232.677 88.4483 232.684 88.9527C232.723 89.8378 233.089 90.6808 233.718 91.332C234.346 91.9832 235.195 92.4006 236.114 92.51C236.629 92.5859 237.154 92.4634 237.574 92.1694C237.942 91.8711 238.13 91.3849 238.551 91.1608C239.237 90.7964 240.07 91.3279 240.571 91.9051C241.073 92.4822 241.567 93.1922 242.344 93.2978C243.372 93.4376 244.154 92.4362 244.538 91.5142C245.068 90.2219 245.322 88.8412 245.285 87.4537C245.248 86.0661 244.92 84.6996 244.322 83.4349C242.176 78.9627 234.847 78.2553 230.978 80.8759Z" fill="#2F2E41"/>
<path d="M171.169 5.85601C164.701 -0.61483 154.179 -0.618237 147.704 5.8492C147.657 5.89688 132.682 20.9365 132.682 20.9365V11.6559C132.682 10.7125 131.916 9.94627 130.973 9.94627C130.03 9.94627 129.264 10.7125 129.264 11.6559V25.0778C129.264 26.0212 130.03 26.7875 130.973 26.7875H144.389C145.332 26.7875 146.098 26.0212 146.098 25.0778C146.098 24.1344 145.332 23.3682 144.389 23.3682H135.075L150.104 8.27066L150.108 8.26725C155.248 3.12464 163.608 3.12464 168.749 8.26725C171.237 10.7568 172.609 14.0706 172.609 17.5921C172.609 21.1136 171.237 24.4273 168.766 26.8999L147.507 48.1651C147.187 48.4886 146.758 48.6657 146.302 48.6657C145.846 48.6657 145.417 48.4886 145.093 48.1651L126.378 29.4405C125.2 28.2622 123.865 26.9271 123.855 26.9169C121.367 24.4273 119.995 21.1136 119.995 17.5921C119.995 14.0706 121.367 10.7568 123.855 8.26725C127.63 4.48692 134.129 3.31195 138.649 5.59037C139.49 6.01268 140.899 7.05823 140.899 7.05823C141.659 7.62017 142.727 7.4601 143.289 6.70063C143.851 5.94115 143.691 4.87176 142.932 4.30982C142.932 4.30982 141.291 3.09399 140.191 2.53885C134.34 -0.410487 126.279 1.0131 121.445 5.85261C118.31 8.98926 116.584 13.1578 116.584 17.5921C116.584 22.0229 118.306 26.1881 121.435 29.3213C121.469 29.3554 122.63 30.5201 123.967 31.8552L142.683 50.5797C143.65 51.547 144.937 52.0817 146.305 52.0817C147.674 52.0817 148.96 51.547 149.927 50.5797L171.165 29.3315C174.301 26.1949 176.027 22.0263 176.027 17.5921C176.03 13.1647 174.304 8.99267 171.169 5.85601Z" fill="#3F3D56"/>
</svg>
