<svg width="500" height="304" viewBox="0 0 500 304" fill="none" xmlns="http://www.w3.org/2000/svg">
<g clip-path="url(#clip0)">
<path d="M331.73 103.8L162.322 0L136.543 42.1981C143.505 46.7271 148.428 53.7987 150.263 61.9076C152.098 70.0165 150.7 78.5224 146.367 85.6148C142.034 92.7072 135.108 97.8259 127.064 99.8815C119.019 101.937 110.492 100.767 103.295 96.6209L94.9297 110.315H166.338V196.911L340.32 303.514L376.734 243.909H331.73V103.8Z" fill="#B7E1D2"/>
<path d="M248.399 232.161C265.343 232.161 279.079 230.034 279.079 227.411C279.079 224.788 265.343 222.662 248.399 222.662C231.455 222.662 217.719 224.788 217.719 227.411C217.719 230.034 231.455 232.161 248.399 232.161Z" fill="#FF966E"/>
<path d="M249.391 185.347L280.303 149.932C282.565 147.617 284.348 144.879 285.553 141.873C286.758 138.867 287.359 135.653 287.324 132.415C287.288 129.176 286.616 125.976 285.345 122.998C284.075 120.02 282.231 117.321 279.919 115.056C277.608 112.791 274.873 111.005 271.872 109.798C268.871 108.592 265.661 107.99 262.428 108.025C259.194 108.061 255.999 108.734 253.025 110.006C250.051 111.279 247.356 113.125 245.095 115.44C242.783 113.176 240.048 111.389 237.047 110.183C234.046 108.976 230.837 108.374 227.603 108.409C224.369 108.445 221.174 109.118 218.2 110.391C215.226 111.663 212.532 113.509 210.27 115.825C208.009 118.14 206.225 120.879 205.02 123.884C203.816 126.89 203.214 130.104 203.25 133.342C203.285 136.581 203.957 139.781 205.228 142.759C206.498 145.738 208.342 148.436 210.654 150.701L245.045 185.347" fill="#FF966E"/>
<path d="M167.303 109.831H0.481445V261.318H167.303V109.831Z" stroke="#3F3D56" stroke-width="2" stroke-miterlimit="10"/>
<path d="M499.517 91.9384H332.696V243.426H499.517V91.9384Z" stroke="#3F3D56" stroke-width="2" stroke-miterlimit="10"/>
<path d="M120.466 90.5651C131.934 90.5651 141.23 81.2553 141.23 69.771C141.23 58.2868 131.934 48.9769 120.466 48.9769C108.999 48.9769 99.7031 58.2868 99.7031 69.771C99.7031 81.2553 108.999 90.5651 120.466 90.5651Z" fill="#FF966E"/>
<path d="M169.719 182.929C169.719 182.929 195.794 173.741 206.9 186.315C218.006 198.888 248.909 179.061 248.909 179.061" stroke="#3F3D56" stroke-width="2" stroke-miterlimit="10"/>
<path d="M381.698 186.315C381.698 186.315 376.869 174.709 344.034 185.347C311.199 195.986 264.844 195.503 253.255 179.061" stroke="#3F3D56" stroke-width="2" stroke-miterlimit="10"/>
<path d="M252.316 228.214C269.26 228.214 282.996 226.087 282.996 223.464C282.996 220.841 269.26 218.715 252.316 218.715C235.372 218.715 221.636 220.841 221.636 223.464C221.636 226.087 235.372 228.214 252.316 228.214Z" stroke="#3F3D56" stroke-width="2" stroke-miterlimit="10"/>
<path d="M249.052 260.615C262.391 260.615 273.204 258.941 273.204 256.876C273.204 254.811 262.391 253.137 249.052 253.137C235.713 253.137 224.899 254.811 224.899 256.876C224.899 258.941 235.713 260.615 249.052 260.615Z" fill="#FF966E"/>
<path d="M249.052 287.867C258.064 287.867 265.371 286.736 265.371 285.341C265.371 283.945 258.064 282.814 249.052 282.814C240.039 282.814 232.732 283.945 232.732 285.341C232.732 286.736 240.039 287.867 249.052 287.867Z" fill="#FF966E"/>
<path d="M252.315 257.284C265.654 257.284 276.468 255.61 276.468 253.545C276.468 251.48 265.654 249.806 252.315 249.806C238.976 249.806 228.163 251.48 228.163 253.545C228.163 255.61 238.976 257.284 252.315 257.284Z" stroke="#3F3D56" stroke-width="2" stroke-miterlimit="10"/>
<path d="M252.315 285.36C261.328 285.36 268.634 284.229 268.634 282.833C268.634 281.438 261.328 280.307 252.315 280.307C243.302 280.307 235.996 281.438 235.996 282.833C235.996 284.229 243.302 285.36 252.315 285.36Z" stroke="#3F3D56" stroke-width="2" stroke-miterlimit="10"/>
<path d="M97.8289 188.953C106.697 188.953 113.885 181.754 113.885 172.873C113.885 163.992 106.697 156.793 97.8289 156.793C88.9612 156.793 81.7725 163.992 81.7725 172.873C81.7725 181.754 88.9612 188.953 97.8289 188.953Z" fill="#2F2E41"/>
<path d="M90.1633 180.997C90.1633 180.997 84.9334 192.594 83.4391 192.969C81.9449 193.343 95.7667 200.077 95.7667 200.077C95.7667 200.077 98.3816 185.86 99.5023 185.112C100.623 184.364 90.1633 180.997 90.1633 180.997Z" fill="#9F616A"/>
<path d="M98.0081 189.601C103.991 189.601 108.841 184.744 108.841 178.752C108.841 172.76 103.991 167.903 98.0081 167.903C92.025 167.903 87.1748 172.76 87.1748 178.752C87.1748 184.744 92.025 189.601 98.0081 189.601Z" fill="#9F616A"/>
<path d="M107.08 261.318H61.0146C62.555 255.713 64.2016 250.157 65.1287 247.072C65.5971 245.524 65.882 244.596 65.882 244.596C65.882 244.596 100.624 252.077 101.368 252.454C101.786 252.901 102.157 253.391 102.474 253.915C103.56 255.51 105.294 258.252 107.08 261.318Z" fill="#2F2E41"/>
<path d="M49.8194 155.557L38.6125 138.348C38.6125 138.348 41.3839 120.295 37.6483 123.662C33.9126 127.029 32.7305 140.626 32.7305 140.626L45.7102 160.421L49.8194 155.557Z" fill="#9F616A"/>
<path d="M151.428 186.983L161.514 186.235C161.514 186.235 173.468 173.515 174.215 177.63C174.962 181.745 164.502 190.724 164.502 190.724L150.681 192.22L151.428 186.983Z" fill="#9F616A"/>
<path d="M77.8359 190.724V186.983C77.8359 186.983 68.1233 180.623 68.4969 179.5C68.8704 178.378 67.7497 177.63 67.7497 177.63C67.7497 177.63 66.6291 176.133 66.6291 175.759C66.6291 175.385 65.1348 175.011 65.1348 175.011L55.7958 164.162C55.7958 164.162 50.5659 153.687 49.4452 154.061C48.3245 154.435 42.3476 156.679 43.0947 158.176C43.8418 159.672 64.7612 191.846 64.7612 191.846C64.7612 191.846 65.8819 198.954 67.7497 198.954C69.6175 198.954 77.8359 190.724 77.8359 190.724Z" fill="#57B894"/>
<path d="M102.864 195.213C102.864 195.213 111.083 194.839 111.456 195.213C111.83 195.587 117.06 195.213 117.06 195.213C117.06 195.213 131.255 191.846 132.376 190.724C133.496 189.602 152.174 184.738 152.922 186.983C153.669 189.227 155.537 193.717 153.669 194.465C151.801 195.213 101.37 207.933 101.37 207.933L102.864 195.213Z" fill="#57B894"/>
<path d="M92.2114 162.603C95.8808 162.603 98.8555 159.624 98.8555 155.949C98.8555 152.274 95.8808 149.295 92.2114 149.295C88.542 149.295 85.5674 152.274 85.5674 155.949C85.5674 159.624 88.542 162.603 92.2114 162.603Z" fill="#2F2E41"/>
<path d="M83.3529 152.345C83.353 150.7 83.9613 149.113 85.0604 147.891C86.1595 146.669 87.6716 145.898 89.3049 145.727C89.075 145.703 88.8439 145.691 88.6128 145.691C86.8507 145.691 85.1607 146.392 83.9147 147.64C82.6687 148.887 81.9688 150.58 81.9688 152.345C81.9688 154.109 82.6687 155.802 83.9147 157.05C85.1607 158.297 86.8507 158.998 88.6128 158.998C88.8439 158.998 89.075 158.986 89.3049 158.962C87.6716 158.791 86.1595 158.02 85.0604 156.798C83.9613 155.576 83.353 153.989 83.3529 152.345Z" fill="#2F2E41"/>
<path d="M99.6955 176.118C105.811 176.118 110.769 173.139 110.769 169.464C110.769 165.789 105.811 162.81 99.6955 162.81C93.5798 162.81 88.6221 165.789 88.6221 169.464C88.6221 173.139 93.5798 176.118 99.6955 176.118Z" fill="#2F2E41"/>
<path d="M86.9878 186.796C86.9878 186.796 83.6258 189.415 82.8787 189.789C82.1315 190.163 77.6488 186.422 76.9017 186.422C76.1546 186.422 66.4419 197.645 66.4419 197.645C66.4419 197.645 68.247 199.727 66.4419 210.365C65.765 214.354 64.422 231.411 64.422 233.656C64.422 235.9 57.1029 241.417 63.827 246.28C70.5511 251.144 102.677 256.381 103.051 253.388C103.425 250.395 99.3154 242.539 101.183 238.798C103.051 235.057 103.051 221.214 103.051 221.214L105.292 206.624L107.16 195.026C107.16 195.026 98.3815 192.595 97.6343 192.595C96.8872 192.595 93.5252 197.832 86.9878 186.796Z" fill="#57B894"/>
<path d="M423.614 151.064L415.97 151.361L416.351 161.204L423.995 160.907L423.614 151.064Z" fill="#FF966E"/>
<path d="M389.131 185.535C389.131 185.535 378.546 180.47 378.715 184.845C378.884 189.219 389.386 192.097 389.386 192.097L389.131 185.535Z" fill="#FFB9B9"/>
<path d="M438.357 243.426H388.144C389.191 238.503 391.186 232.564 392.745 228.285C393.981 224.9 394.937 222.549 394.937 222.549C400.64 216.108 408.917 215.944 416.681 217.535C417.608 217.723 418.53 217.936 419.438 218.173C419.544 218.197 419.651 218.226 419.757 218.255C421.572 218.724 423.335 219.266 425.001 219.807C427.874 220.746 430.467 221.693 432.563 222.337C433.616 222.686 434.699 222.94 435.798 223.096C436.038 223.121 436.28 223.131 436.522 223.125C437.353 223.091 437.927 223.986 438.299 225.548C439.139 229.073 438.946 236.017 438.357 243.426Z" fill="#2F2E41"/>
<path d="M428.451 141.84C428.451 141.84 434.271 150.924 436.54 153.026C438.809 155.129 432.426 159.758 432.426 159.758L421.002 161.297C421.002 161.297 421.146 150.886 420.558 149.814C419.969 148.741 428.451 141.84 428.451 141.84Z" fill="#FFB9B9"/>
<path d="M418.522 153.726C418.522 153.726 420.876 158.016 423.06 157.931C425.244 157.846 436.541 153.026 437.023 151.365C437.506 149.703 440.765 163.268 440.765 163.268L413.123 211.986L406.38 207.319L409.647 178.715L412.33 163.277L418.522 153.726Z" fill="#FF966E"/>
<path d="M438.042 197.327C436.901 199.548 436.319 202.014 436.347 204.512C436.351 204.622 436.355 204.731 436.365 204.84C436.626 209.901 438.488 215.754 439.156 220.011C439.641 223.064 439.503 225.293 437.718 225.817C433.393 227.08 438.349 227.983 421.613 233.562C404.878 239.14 401.957 234.325 401.915 233.231C401.872 232.138 404.285 223.829 403.718 223.304C403.15 222.778 395.781 230.184 393.555 229.175C391.329 228.166 393.301 222.613 393.301 222.613C393.301 222.613 398.316 210.918 398.211 208.184C398.105 205.45 405.808 192.555 405.808 192.555L411.047 158.398C411.047 158.398 413.062 153.938 415.771 153.285C417.477 152.93 419.255 153.254 420.727 154.188L416.194 164.222L411.412 181.932L412.212 188.473C412.212 188.473 417.773 176.756 421.426 172.233C425.079 167.71 432.867 157.003 432.867 157.003C432.867 157.003 434.685 150.859 433.312 149.022C431.939 147.181 439.038 146.905 442.064 154.455C443.668 158.456 446.272 164.423 447.904 169.978C449.357 174.9 450.044 179.501 448.604 182.13C446.403 186.148 440.865 191.429 438.042 197.327Z" fill="#2D3CB9"/>
<path opacity="0.1" d="M448.604 182.131C446.403 186.148 440.866 191.429 438.043 197.327C437.306 194.667 436.406 191.914 436.406 191.914C436.406 191.914 432.956 173.428 443.161 168.651C444.852 168.487 446.543 168.96 447.904 169.978C449.358 174.9 450.045 179.501 448.604 182.131Z" fill="black"/>
<path d="M408.094 180.966L399.442 183.492L387.43 183.959L386.194 194.412L405.935 195.836C405.935 195.836 410.866 181.953 408.094 180.966Z" fill="#2D3CB9"/>
<path d="M422.201 216.112C422.201 216.112 410.627 218.036 413.269 221.524C415.911 225.012 426.164 221.345 426.164 221.345L422.201 216.112Z" fill="#FFB9B9"/>
<path opacity="0.1" d="M436.365 204.84C436.626 209.901 438.488 215.754 439.156 220.011C435.469 223.506 431.963 226.588 430.641 226.64C427.911 226.746 423.522 226.368 421.905 226.979C420.288 227.589 419.34 217.221 419.34 217.221C419.34 217.221 420.305 213.898 424.609 212.087C427.515 210.863 433.084 207.542 436.365 204.84Z" fill="black"/>
<path d="M443.034 165.37C443.034 165.37 452.274 163.916 451.775 179.269C451.276 194.623 452.749 204.423 449.033 207.305C445.317 210.188 433.245 223.253 430.515 223.359C427.785 223.465 423.396 223.087 421.779 223.698C420.162 224.308 419.214 213.94 419.214 213.94C419.214 213.94 420.179 210.617 424.483 208.807C428.788 206.996 438.929 200.579 438.845 198.391C438.76 196.204 436.279 188.633 436.279 188.633C436.279 188.633 432.829 170.147 443.034 165.37Z" fill="#2D3CB9"/>
<path d="M420.305 155.291C426.944 155.291 432.326 149.901 432.326 143.252C432.326 136.603 426.944 131.213 420.305 131.213C413.665 131.213 408.283 136.603 408.283 143.252C408.283 149.901 413.665 155.291 420.305 155.291Z" fill="#FFB9B9"/>
<path d="M412.21 125.996C411.92 126.246 411.573 126.421 411.199 126.504C411.012 126.538 410.819 126.495 410.662 126.387C410.506 126.278 410.398 126.112 410.364 125.924C410.148 126.525 409.746 127.041 409.217 127.397C408.655 127.691 407.787 127.445 407.706 126.816C407.624 127.293 407.413 127.739 407.096 128.105C406.931 128.28 406.703 128.383 406.463 128.391C406.222 128.399 405.988 128.312 405.812 128.148C406.057 129.494 405.906 130.878 405.983 132.244C406.06 133.611 406.424 135.059 407.454 135.957C408.957 137.267 411.217 136.944 413.194 136.696C413.493 136.633 413.804 136.65 414.094 136.745C414.834 137.061 414.801 138.093 414.811 138.898C414.871 140.312 415.43 141.659 416.388 142.699C417.345 143.739 418.64 144.406 420.043 144.581C420.827 144.702 421.628 144.506 422.269 144.037C422.83 143.56 423.117 142.784 423.76 142.426C424.806 141.844 426.075 142.693 426.84 143.615C427.605 144.537 428.359 145.671 429.544 145.839C431.111 146.063 432.305 144.463 432.891 142.99C433.699 140.926 434.086 138.72 434.029 136.504C433.973 134.287 433.473 132.104 432.561 130.084C429.288 122.94 418.11 121.81 412.21 125.996Z" fill="#2F2E41"/>
<path d="M289.422 106.785C279.167 96.4648 262.484 96.4594 252.218 106.774C252.142 106.85 228.399 130.837 228.399 130.837V116.036C228.399 114.531 227.185 113.309 225.69 113.309C224.195 113.309 222.98 114.531 222.98 116.036V137.442C222.98 138.947 224.195 140.169 225.69 140.169H246.961C248.456 140.169 249.67 138.947 249.67 137.442C249.67 135.938 248.456 134.716 246.961 134.716H232.194L256.023 110.636L256.028 110.631C264.179 102.429 277.435 102.429 285.585 110.631C289.53 114.602 291.705 119.887 291.705 125.503C291.705 131.12 289.53 136.405 285.612 140.348L251.905 174.265C251.398 174.781 250.717 175.063 249.994 175.063C249.271 175.063 248.591 174.781 248.078 174.265L218.403 144.4C216.536 142.521 214.42 140.392 214.404 140.376C210.458 136.405 208.283 131.12 208.283 125.503C208.283 119.887 210.458 114.602 214.404 110.631C220.39 104.602 230.693 102.728 237.861 106.362C239.194 107.035 241.429 108.703 241.429 108.703C242.632 109.599 244.327 109.344 245.218 108.132C246.108 106.921 245.854 105.215 244.651 104.319C244.651 104.319 242.049 102.38 240.306 101.495C231.028 96.7907 218.247 99.0612 210.582 106.78C205.611 111.782 202.875 118.431 202.875 125.503C202.875 132.57 205.606 139.213 210.566 144.21C210.62 144.265 212.461 146.122 214.582 148.252L244.257 178.116C245.79 179.658 247.83 180.511 250 180.511C252.169 180.511 254.21 179.658 255.742 178.116L289.417 144.227C294.388 139.224 297.124 132.575 297.124 125.503C297.13 118.442 294.393 111.788 289.422 106.785Z" fill="#3F3D56"/>
</g>
<defs>
<clipPath id="clip0">
<rect width="500" height="303.514" fill="white"/>
</clipPath>
</defs>
</svg>
