<svg width="313" height="190" viewBox="0 0 313 190" fill="none" xmlns="http://www.w3.org/2000/svg">
<g clip-path="url(#clip0)">
<path d="M207.663 64.9791L101.614 0L85.4758 26.416C89.8343 29.2512 92.9158 33.678 94.0644 38.7541C95.213 43.8303 94.338 49.155 91.6257 53.5948C88.9133 58.0347 84.5778 61.239 79.542 62.5258C74.5061 63.8127 69.1676 63.0803 64.6628 60.4847L59.4259 69.0569H104.128V123.267L213.04 190L235.835 152.687H207.663V64.9791Z" fill="#B7E1D2"/>
<path d="M155.498 145.333C166.105 145.333 174.703 144.001 174.703 142.359C174.703 140.717 166.105 139.386 155.498 139.386C144.891 139.386 136.292 140.717 136.292 142.359C136.292 144.001 144.891 145.333 155.498 145.333Z" fill="#FF966E"/>
<path d="M156.119 116.027L175.47 93.8577C176.886 92.4084 178.003 90.694 178.757 88.8124C179.511 86.9309 179.887 84.919 179.865 82.8916C179.843 80.8643 179.422 78.8612 178.627 76.9967C177.831 75.1323 176.677 73.4429 175.23 72.0252C173.783 70.6074 172.071 69.489 170.192 68.7338C168.313 67.9786 166.304 67.6015 164.28 67.6238C162.256 67.6461 160.256 68.0676 158.394 68.864C156.532 69.6605 154.845 70.8164 153.43 72.2657C151.983 70.848 150.271 69.7296 148.392 68.9744C146.513 68.2192 144.504 67.842 142.48 67.8643C140.456 67.8867 138.455 68.3081 136.594 69.1046C134.732 69.901 133.045 71.0569 131.63 72.5063C130.214 73.9556 129.097 75.67 128.343 77.5516C127.589 79.4331 127.212 81.445 127.235 83.4724C127.257 85.4997 127.678 87.5028 128.473 89.3673C129.268 91.2317 130.423 92.9211 131.87 94.3388L153.399 116.027" fill="#FF966E"/>
<path d="M104.731 68.7542H0.3013V163.585H104.731V68.7542Z" stroke="#3F3D56" stroke-width="2" stroke-miterlimit="10"/>
<path d="M312.698 57.5534H208.268V152.384H312.698V57.5534Z" stroke="#3F3D56" stroke-width="2" stroke-miterlimit="10"/>
<path d="M75.4116 56.6937C82.5901 56.6937 88.4095 50.8658 88.4095 43.6766C88.4095 36.4875 82.5901 30.6595 75.4116 30.6595C68.2331 30.6595 62.4138 36.4875 62.4138 43.6766C62.4138 50.8658 68.2331 56.6937 75.4116 56.6937Z" fill="#FF966E"/>
<path d="M106.244 114.514C106.244 114.514 122.567 108.762 129.519 116.633C136.471 124.504 155.817 112.092 155.817 112.092" stroke="#3F3D56" stroke-width="2" stroke-miterlimit="10"/>
<path d="M238.943 116.633C238.943 116.633 235.92 109.368 215.365 116.027C194.81 122.687 165.792 122.385 158.537 112.092" stroke="#3F3D56" stroke-width="2" stroke-miterlimit="10"/>
<path d="M157.95 142.862C168.557 142.862 177.155 141.531 177.155 139.889C177.155 138.246 168.557 136.915 157.95 136.915C147.343 136.915 138.744 138.246 138.744 139.889C138.744 141.531 147.343 142.862 157.95 142.862Z" stroke="#3F3D56" stroke-width="2" stroke-miterlimit="10"/>
<path d="M155.906 163.145C164.257 163.145 171.026 162.097 171.026 160.804C171.026 159.511 164.257 158.464 155.906 158.464C147.556 158.464 140.787 159.511 140.787 160.804C140.787 162.097 147.556 163.145 155.906 163.145Z" fill="#FF966E"/>
<path d="M155.906 180.205C161.548 180.205 166.122 179.497 166.122 178.623C166.122 177.75 161.548 177.042 155.906 177.042C150.264 177.042 145.691 177.75 145.691 178.623C145.691 179.497 150.264 180.205 155.906 180.205Z" fill="#FF966E"/>
<path d="M157.95 161.059C166.3 161.059 173.069 160.012 173.069 158.719C173.069 157.426 166.3 156.378 157.95 156.378C149.599 156.378 142.83 157.426 142.83 158.719C142.83 160.012 149.599 161.059 157.95 161.059Z" stroke="#3F3D56" stroke-width="2" stroke-miterlimit="10"/>
<path d="M157.95 178.635C163.592 178.635 168.165 177.927 168.165 177.054C168.165 176.18 163.592 175.472 157.95 175.472C152.308 175.472 147.734 176.18 147.734 177.054C147.734 177.927 152.308 178.635 157.95 178.635Z" stroke="#3F3D56" stroke-width="2" stroke-miterlimit="10"/>
<path d="M61.2405 118.285C66.7917 118.285 71.2918 113.778 71.2918 108.219C71.2918 102.659 66.7917 98.1524 61.2405 98.1524C55.6893 98.1524 51.1891 102.659 51.1891 108.219C51.1891 113.778 55.6893 118.285 61.2405 118.285Z" fill="#2F2E41"/>
<path d="M56.4424 113.304C56.4424 113.304 53.1685 120.564 52.2331 120.798C51.2977 121.033 59.9501 125.248 59.9501 125.248C59.9501 125.248 61.5871 116.349 62.2886 115.88C62.9902 115.412 56.4424 113.304 56.4424 113.304Z" fill="#9F616A"/>
<path d="M61.3532 118.691C65.0986 118.691 68.1348 115.65 68.1348 111.899C68.1348 108.148 65.0986 105.107 61.3532 105.107C57.6078 105.107 54.5716 108.148 54.5716 111.899C54.5716 115.65 57.6078 118.691 61.3532 118.691Z" fill="#9F616A"/>
<path d="M67.0326 163.585H38.1955C39.1598 160.077 40.1905 156.598 40.7709 154.667C41.0641 153.698 41.2424 153.117 41.2424 153.117C41.2424 153.117 62.9911 157.8 63.4566 158.036C63.7185 158.316 63.9505 158.623 64.1489 158.951C64.829 159.949 65.9141 161.666 67.0326 163.585Z" fill="#2F2E41"/>
<path d="M31.1866 97.3788L24.1711 86.6058C24.1711 86.6058 25.906 75.3048 23.5675 77.4125C21.229 79.5203 20.489 88.0321 20.489 88.0321L28.6143 100.423L31.1866 97.3788Z" fill="#9F616A"/>
<path d="M94.7937 117.051L101.108 116.583C101.108 116.583 108.591 108.62 109.059 111.196C109.526 113.772 102.978 119.393 102.978 119.393L94.326 120.33L94.7937 117.051Z" fill="#9F616A"/>
<path d="M48.7253 119.393V117.051C48.7253 117.051 42.6452 113.07 42.8791 112.367C43.113 111.665 42.4114 111.196 42.4114 111.196C42.4114 111.196 41.7099 110.26 41.7099 110.025C41.7099 109.791 40.7745 109.557 40.7745 109.557L34.9282 102.765C34.9282 102.765 31.6543 96.2078 30.9528 96.442C30.2512 96.6762 26.5096 98.0814 26.9773 99.0182C27.445 99.955 40.5406 120.096 40.5406 120.096C40.5406 120.096 41.2422 124.546 42.4114 124.546C43.5806 124.546 48.7253 119.393 48.7253 119.393Z" fill="#57B894"/>
<path d="M64.3933 122.204C64.3933 122.204 69.538 121.969 69.7718 122.204C70.0057 122.438 73.2796 122.204 73.2796 122.204C73.2796 122.204 82.1658 120.096 82.8674 119.393C83.5689 118.691 95.2614 115.646 95.7291 117.051C96.1968 118.456 97.3661 121.267 96.1968 121.735C95.0276 122.204 63.4579 130.166 63.4579 130.166L64.3933 122.204Z" fill="#57B894"/>
<path d="M57.7244 101.789C60.0214 101.789 61.8835 99.9244 61.8835 97.6239C61.8835 95.3235 60.0214 93.4586 57.7244 93.4586C55.4273 93.4586 53.5652 95.3235 53.5652 97.6239C53.5652 99.9244 55.4273 101.789 57.7244 101.789Z" fill="#2F2E41"/>
<path d="M52.1788 95.3677C52.1789 94.3381 52.5597 93.345 53.2477 92.58C53.9358 91.815 54.8823 91.3323 55.9048 91.2249C55.7608 91.2099 55.6162 91.2024 55.4715 91.2024C54.3684 91.2024 53.3105 91.6412 52.5305 92.4224C51.7505 93.2035 51.3123 94.263 51.3123 95.3677C51.3123 96.4724 51.7505 97.5319 52.5305 98.3131C53.3105 99.0942 54.3684 99.5331 55.4715 99.5331C55.6162 99.533 55.7608 99.5255 55.9048 99.5105C54.8823 99.4032 53.9358 98.9204 53.2477 98.1554C52.5597 97.3904 52.1789 96.3973 52.1788 95.3677Z" fill="#2F2E41"/>
<path d="M62.4098 110.25C66.2382 110.25 69.3417 108.385 69.3417 106.084C69.3417 103.784 66.2382 101.919 62.4098 101.919C58.5814 101.919 55.4778 103.784 55.4778 106.084C55.4778 108.385 58.5814 110.25 62.4098 110.25Z" fill="#2F2E41"/>
<path d="M54.4546 116.934C54.4546 116.934 52.35 118.573 51.8823 118.808C51.4146 119.042 48.6084 116.7 48.1407 116.7C47.673 116.7 41.5929 123.726 41.5929 123.726C41.5929 123.726 42.7228 125.029 41.5929 131.688C41.1691 134.186 40.3284 144.863 40.3284 146.268C40.3284 147.674 35.7467 151.127 39.956 154.171C44.1652 157.216 64.2763 160.495 64.5101 158.621C64.744 156.747 62.1716 151.829 63.3409 149.487C64.5101 147.145 64.5101 138.48 64.5101 138.48L65.9132 129.347L67.0825 122.086C67.0825 122.086 61.587 120.564 61.1193 120.564C60.6516 120.564 58.547 123.843 54.4546 116.934Z" fill="#57B894"/>
<path d="M265.182 94.5661L260.397 94.7519L260.636 100.913L265.421 100.728L265.182 94.5661Z" fill="#FF966E"/>
<path d="M243.596 116.145C243.596 116.145 236.969 112.974 237.075 115.713C237.182 118.451 243.755 120.253 243.755 120.253L243.596 116.145Z" fill="#FFB9B9"/>
<path d="M274.412 152.384H242.978C243.634 149.303 244.882 145.585 245.859 142.906C246.632 140.787 247.231 139.316 247.231 139.316C250.801 135.284 255.982 135.181 260.842 136.177C261.423 136.295 262 136.428 262.568 136.576C262.635 136.591 262.701 136.61 262.768 136.628C263.904 136.921 265.008 137.26 266.051 137.599C267.849 138.187 269.472 138.78 270.784 139.183C271.444 139.401 272.122 139.56 272.809 139.658C272.96 139.674 273.111 139.68 273.263 139.676C273.783 139.655 274.142 140.215 274.375 141.193C274.901 143.4 274.78 147.747 274.412 152.384Z" fill="#2F2E41"/>
<path d="M268.211 88.7919C268.211 88.7919 271.854 94.4784 273.274 95.7945C274.695 97.1106 270.699 100.008 270.699 100.008L263.548 100.972C263.548 100.972 263.638 94.4546 263.269 93.7833C262.901 93.112 268.211 88.7919 268.211 88.7919Z" fill="#FFB9B9"/>
<path d="M261.995 96.2326C261.995 96.2326 263.468 98.9179 264.835 98.8648C266.203 98.8117 273.275 95.7945 273.577 94.7543C273.879 93.7141 275.919 102.205 275.919 102.205L258.615 132.703L254.394 129.782L256.439 111.875L258.119 102.211L261.995 96.2326Z" fill="#FF966E"/>
<path d="M274.215 123.527C273.5 124.917 273.135 126.461 273.153 128.025C273.156 128.093 273.158 128.162 273.164 128.23C273.328 131.398 274.494 135.062 274.912 137.727C275.215 139.638 275.129 141.033 274.012 141.361C271.304 142.152 274.407 142.717 263.93 146.21C253.453 149.702 251.625 146.688 251.599 146.003C251.572 145.318 253.082 140.117 252.727 139.788C252.372 139.459 247.759 144.095 246.366 143.464C244.972 142.832 246.207 139.356 246.207 139.356C246.207 139.356 249.346 132.035 249.28 130.323C249.214 128.612 254.036 120.539 254.036 120.539L257.316 99.1569C257.316 99.1569 258.577 96.3653 260.273 95.9566C261.341 95.7343 262.454 95.937 263.375 96.5218L260.538 102.803L257.544 113.889L258.045 117.984C258.045 117.984 261.526 110.649 263.813 107.818C266.099 104.987 270.975 98.2836 270.975 98.2836C270.975 98.2836 272.113 94.4375 271.254 93.2881C270.394 92.1353 274.838 91.9627 276.732 96.6887C277.736 99.1934 279.367 102.929 280.388 106.406C281.298 109.487 281.728 112.367 280.826 114.014C279.448 116.529 275.982 119.834 274.215 123.527Z" fill="#2D3CB9"/>
<path opacity="0.1" d="M280.826 114.014C279.448 116.529 275.982 119.834 274.215 123.527C273.753 121.861 273.19 120.138 273.19 120.138C273.19 120.138 271.03 108.566 277.419 105.575C278.477 105.473 279.536 105.769 280.388 106.406C281.298 109.487 281.728 112.367 280.826 114.014Z" fill="black"/>
<path d="M255.467 113.285L250.051 114.866L242.531 115.158L241.758 121.702L254.115 122.593C254.115 122.593 257.202 113.903 255.467 113.285Z" fill="#2D3CB9"/>
<path d="M264.298 135.286C264.298 135.286 257.053 136.49 258.706 138.674C260.36 140.857 266.778 138.562 266.778 138.562L264.298 135.286Z" fill="#FFB9B9"/>
<path opacity="0.1" d="M273.165 128.23C273.328 131.398 274.494 135.062 274.912 137.727C272.604 139.915 270.409 141.844 269.582 141.876C267.873 141.943 265.125 141.707 264.113 142.089C263.101 142.471 262.507 135.98 262.507 135.98C262.507 135.98 263.111 133.9 265.806 132.767C267.625 132 271.111 129.921 273.165 128.23Z" fill="black"/>
<path d="M277.339 103.522C277.339 103.522 283.123 102.611 282.811 112.223C282.498 121.834 283.421 127.969 281.094 129.773C278.768 131.578 271.211 139.756 269.502 139.822C267.793 139.889 265.046 139.653 264.033 140.035C263.021 140.417 262.428 133.926 262.428 133.926C262.428 133.926 263.032 131.846 265.726 130.713C268.421 129.58 274.769 125.562 274.716 124.193C274.663 122.824 273.111 118.084 273.111 118.084C273.111 118.084 270.951 106.512 277.339 103.522Z" fill="#2D3CB9"/>
<path d="M263.11 97.212C267.267 97.212 270.636 93.8379 270.636 89.6756C270.636 85.5133 267.267 82.1391 263.11 82.1391C258.954 82.1391 255.585 85.5133 255.585 89.6756C255.585 93.8379 258.954 97.212 263.11 97.212Z" fill="#FFB9B9"/>
<path d="M258.043 78.8736C257.862 79.0303 257.645 79.1395 257.411 79.1916C257.293 79.2126 257.172 79.1862 257.074 79.1182C256.976 79.0502 256.909 78.9461 256.887 78.8286C256.752 79.2047 256.501 79.5277 256.169 79.7508C255.818 79.9343 255.274 79.7805 255.224 79.3867C255.172 79.6857 255.04 79.9649 254.842 80.194C254.738 80.3036 254.596 80.3679 254.445 80.373C254.295 80.378 254.148 80.3234 254.038 80.2209C254.192 81.0634 254.097 81.9299 254.145 82.7851C254.193 83.6402 254.421 84.5468 255.066 85.1091C256.007 85.9292 257.422 85.7268 258.66 85.5714C258.847 85.5321 259.041 85.5427 259.223 85.6023C259.686 85.8 259.665 86.446 259.671 86.9504C259.709 87.8355 260.059 88.6784 260.658 89.3297C261.258 89.9809 262.069 90.3983 262.946 90.5076C263.438 90.5836 263.939 90.4611 264.34 90.167C264.691 89.8688 264.871 89.3826 265.274 89.1585C265.928 88.794 266.723 89.3256 267.202 89.9028C267.681 90.4799 268.153 91.1899 268.894 91.2955C269.875 91.4353 270.623 90.4339 270.989 89.5119C271.495 88.2196 271.738 86.8389 271.702 85.4513C271.667 84.0638 271.354 82.6973 270.783 81.4326C268.734 76.9604 261.736 76.253 258.043 78.8736Z" fill="#2F2E41"/>
<path d="M181.178 66.8476C174.759 60.387 164.315 60.3836 157.889 66.8408C157.841 66.8884 142.978 81.9042 142.978 81.9042V72.6383C142.978 71.6964 142.218 70.9313 141.282 70.9313C140.346 70.9313 139.586 71.6964 139.586 72.6383V86.0389C139.586 86.9808 140.346 87.7459 141.282 87.7459H154.598C155.534 87.7459 156.294 86.9808 156.294 86.0389C156.294 85.097 155.534 84.332 154.598 84.332H145.353L160.271 69.2584L160.274 69.255C165.376 64.1205 173.674 64.1205 178.776 69.255C181.246 71.7406 182.608 75.0491 182.608 78.565C182.608 82.081 181.246 85.3895 178.793 87.8581L157.693 109.09C157.375 109.413 156.949 109.589 156.497 109.589C156.044 109.589 155.618 109.413 155.297 109.09L136.721 90.3947C135.552 89.2182 134.227 87.8853 134.217 87.8751C131.747 85.3895 130.386 82.081 130.386 78.565C130.386 75.0491 131.747 71.7406 134.217 69.255C137.964 65.4806 144.414 64.3075 148.901 66.5823C149.736 67.004 151.135 68.0479 151.135 68.0479C151.888 68.6089 152.949 68.4491 153.506 67.6908C154.064 66.9326 153.905 65.8649 153.152 65.3038C153.152 65.3038 151.523 64.0899 150.432 63.5357C144.624 60.591 136.623 62.0123 131.825 66.8442C128.713 69.9759 127 74.1378 127 78.565C127 82.9889 128.71 87.1474 131.815 90.2757C131.849 90.3097 133.001 91.4726 134.329 92.8056L152.905 111.5C153.865 112.466 155.142 113 156.5 113C157.858 113 159.135 112.466 160.095 111.5L181.175 90.2859C184.287 87.1542 186 82.9923 186 78.565C186.003 74.1446 184.29 69.9793 181.178 66.8476Z" fill="#3F3D56"/>
</g>
<defs>
<clipPath id="clip0">
<rect width="313" height="190" fill="white"/>
</clipPath>
</defs>
</svg>
