<svg width="160" height="170" viewBox="0 0 160 170" fill="none" xmlns="http://www.w3.org/2000/svg">
<path d="M145.882 77.308C145.882 87.3666 143.819 95.6462 140.241 102.739C139.059 105.075 137.719 107.299 136.231 109.388C123.075 127.97 98.616 138.14 76.5096 154.613C11.2555 203.239 4.1872 125.321 7.13438 77.308C8.32316 57.9346 14.8565 40.1884 25.236 26.6006C27.4159 23.7429 29.7706 21.0696 32.282 18.6013C44.0658 7.01266 59.2896 0 76.5096 0C106.053 0 131.283 20.5775 141.286 49.5748C144.327 58.399 145.887 67.8107 145.882 77.308Z" fill="#FF966E"/>
<path d="M91.2941 17.4359L25.4117 26.1539C27.5859 23.4393 29.9345 20.8999 32.4394 18.5552L91.2941 17.4359Z" fill="#D0CDE1"/>
<path d="M140.235 102.52C139.061 104.788 137.728 106.946 136.249 108.974L80 101.346L140.235 102.52Z" fill="#D0CDE1"/>
<path d="M143.059 57.7564L48 43.5897L140.771 49.8917C141.662 52.4616 142.426 55.0874 143.059 57.7564Z" fill="#D0CDE1"/>
<path d="M14.1176 20.705C14.1176 20.893 14.1126 21.0782 14.0975 21.2608C14.0211 22.3921 13.7122 23.4908 13.1933 24.4768C12.6743 25.4629 11.9584 26.3114 11.0976 26.9606C10.2368 27.6098 9.25286 28.0434 8.21742 28.2297C7.18198 28.416 6.12112 28.3504 5.1121 28.0377C4.10309 27.7249 3.17134 27.1729 2.38471 26.4218C1.59808 25.6707 0.976378 24.7395 0.564895 23.6959C0.153413 22.6524 -0.0374922 21.5227 0.00608519 20.3894C0.0496626 19.256 0.326629 18.1474 0.816804 17.1443C0.968569 16.83 1.14218 16.5285 1.33613 16.2426C2.18028 14.9773 3.3632 14.0223 4.72532 13.5063C6.08745 12.9902 7.56325 12.9381 8.95367 13.3567C10.3441 13.7754 11.5823 14.6449 12.5011 15.8478C13.42 17.0507 13.9754 18.5292 14.0924 20.0839C14.1101 20.2882 14.1176 20.4952 14.1176 20.705Z" fill="#FF966E"/>
<path d="M14.1176 20.264C14.1176 20.4132 14.1127 20.5602 14.0979 20.7051L3.76465 19.6154L14.0929 19.771C14.1102 19.9332 14.1176 20.0975 14.1176 20.264Z" fill="#D0CDE1"/>
<path d="M11.2941 25.0641L1.67534 26.1538C1.40231 25.8675 1.15663 25.559 0.941162 25.2321L11.2941 25.0641Z" fill="#D0CDE1"/>
<path d="M8.47057 15.2565L0.941162 16.3462C1.08388 16.0171 1.24714 15.7014 1.42953 15.402L8.47057 15.2565Z" fill="#D0CDE1"/>
<path d="M108.408 164.569C108.332 164.746 108.253 164.919 108.167 165.084C107.646 166.113 106.946 166.985 106.119 167.637C105.292 168.288 104.358 168.703 103.386 168.85C102.413 168.997 101.426 168.874 100.497 168.488C99.5682 168.102 98.7201 167.464 98.0149 166.621C97.3096 165.777 96.765 164.749 96.4205 163.611C96.0761 162.473 95.9406 161.254 96.0238 160.043C96.1071 158.832 96.4071 157.659 96.9019 156.61C97.3967 155.561 98.0739 154.662 98.8841 153.979C99.1365 153.763 99.4017 153.572 99.6774 153.407C100.886 152.668 102.248 152.406 103.58 152.657C104.911 152.908 106.149 153.659 107.126 154.81C108.103 155.961 108.772 157.456 109.042 159.094C109.313 160.731 109.172 162.432 108.639 163.967C108.571 164.17 108.493 164.37 108.408 164.569Z" fill="#FF966E"/>
<path d="M108.925 165.083C108.842 165.276 108.755 165.463 108.661 165.641L99.7646 158.013L109.176 164.43C109.102 164.65 109.017 164.867 108.925 165.083Z" fill="#D0CDE1"/>
<path d="M104.471 166.731L96.1737 162.686C96.0833 162.225 96.0252 161.756 96 161.282L104.471 166.731Z" fill="#D0CDE1"/>
<path d="M106.353 158.013L98.8235 154.287C99.0941 154.049 99.3784 153.837 99.674 153.654L106.353 158.013Z" fill="#D0CDE1"/>
<path d="M157.995 26.4407C158.116 26.5849 158.232 26.7311 158.34 26.8833C159.016 27.8128 159.505 28.9053 159.77 30.0811C160.036 31.2569 160.072 32.4866 159.875 33.6804C159.678 34.8742 159.254 36.0022 158.633 36.9822C158.012 37.9621 157.21 38.7694 156.285 39.3452C155.361 39.921 154.337 40.2508 153.288 40.3106C152.24 40.3704 151.193 40.1587 150.224 39.6909C149.255 39.2231 148.388 38.5109 147.687 37.6064C146.986 36.7018 146.468 35.6276 146.171 34.4619C146.076 34.0981 146.006 33.7265 145.96 33.3504C145.747 31.6975 145.976 30.0087 146.618 28.5117C147.26 27.0148 148.283 25.7817 149.549 24.9789C150.815 24.176 152.264 23.842 153.699 24.0218C155.134 24.2017 156.487 24.8867 157.575 25.9846C157.72 26.1271 157.859 26.2798 157.995 26.4407Z" fill="#FF966E"/>
<path d="M157.772 26.6278C157.894 26.7776 158.01 26.9295 158.118 27.0877L149.647 34.8718L157.352 26.1538C157.497 26.3019 157.637 26.4606 157.772 26.6278Z" fill="#D0CDE1"/>
<path d="M158.118 31.6025L151.838 40.3205C151.417 40.289 150.998 40.216 150.588 40.1023L158.118 31.6025Z" fill="#D0CDE1"/>
<path d="M150.588 27.2435L146.071 34.8717C145.986 34.4901 145.923 34.1002 145.882 33.7056L150.588 27.2435Z" fill="#D0CDE1"/>
<path d="M20.974 92.6927L20.8589 92.6751L21.1398 93.9094C21.4054 95.6314 21.7911 97.3257 22.2931 98.9758L30.5336 135.177C30.7966 136.333 31.3457 137.374 32.1137 138.174C32.8816 138.974 33.8349 139.497 34.8566 139.68L51.6617 142.684C52.7483 142.879 53.8603 142.678 54.8442 142.111C55.828 141.543 56.6351 140.637 57.1541 139.517L73.1245 105.044C73.6235 104.089 74.0795 103.105 74.4906 102.095L75.0328 100.925L74.9483 100.912C76.6412 96.2838 77.3864 91.2664 77.1257 86.2507C76.8651 81.2351 75.6056 76.3568 73.4455 71.9961C71.2854 67.6353 68.2831 63.91 64.6725 61.1105C61.0619 58.3111 56.9407 56.513 52.63 55.8566C48.3193 55.2001 43.9357 55.703 39.8208 57.3261C35.706 58.9491 31.971 61.6485 28.9072 65.2137C25.8433 68.7789 23.5333 73.1136 22.1573 77.88C20.7812 82.6464 20.3763 87.7157 20.974 92.6927H20.974Z" fill="#2D3CB9"/>
<path d="M52.4199 144.936C52.131 144.936 51.8425 144.91 51.557 144.857L34.4099 141.723C33.3207 141.524 32.3045 140.954 31.4859 140.082C30.6673 139.21 30.0819 138.075 29.8017 136.816L21.3936 99.051C20.8798 97.3221 20.4849 95.5471 20.2127 93.7432L20.0001 92.091C19.428 86.813 19.902 81.4501 21.3849 76.4256C22.8678 71.4012 25.3188 66.8527 28.5445 63.1394C31.7702 59.426 35.6823 56.6494 39.972 55.0287C44.2617 53.408 48.8115 52.9876 53.2623 53.8006L53.188 54.366C48.7857 53.5644 44.2858 53.9896 40.0473 55.6075C35.8087 57.2253 31.9489 59.9912 28.7756 63.6844C25.6023 67.3776 23.2034 71.8959 21.7704 76.8789C20.3373 81.8619 19.9097 87.1716 20.5217 92.3845L20.6852 93.6203C20.9553 95.409 21.3469 97.169 21.8562 98.8834L30.2701 136.67C30.5262 137.822 31.0615 138.86 31.81 139.657C32.5586 140.454 33.4879 140.976 34.4839 141.158L51.631 144.292C52.6901 144.484 53.7736 144.284 54.7324 143.719C55.6911 143.153 56.478 142.251 56.9847 141.135L57.4117 141.405C56.9272 142.472 56.2072 143.363 55.3283 143.985C54.4494 144.606 53.4443 144.935 52.4199 144.936Z" fill="#D0CDE1"/>
<path d="M57.1421 100.64L46.4971 134.293L47.097 134.548L57.7421 100.894L57.1421 100.64Z" fill="#D0CDE1"/>
<path d="M39.7611 97.5259L39.1228 97.5583L40.4815 133.363L41.1198 133.331L39.7611 97.5259Z" fill="#D0CDE1"/>
<path d="M51.0296 161.273L28.7692 157.291C28.6037 157.261 28.4554 157.155 28.3568 156.999C28.2582 156.842 28.2172 156.646 28.2428 156.455C28.2684 156.263 28.3586 156.091 28.4936 155.976C28.6286 155.861 28.7974 155.813 28.9632 155.841L51.2236 159.823C51.3063 159.837 51.3858 159.87 51.4575 159.92C51.5291 159.97 51.5915 160.036 51.6411 160.113C51.6907 160.191 51.7265 160.28 51.7465 160.374C51.7664 160.468 51.7701 160.565 51.7573 160.661C51.7445 160.756 51.7155 160.848 51.672 160.93C51.6284 161.013 51.5712 161.085 51.5036 161.142C51.4359 161.199 51.3592 161.239 51.2779 161.262C51.1966 161.284 51.1122 161.288 51.0296 161.273Z" fill="#3F3D56"/>
<path d="M51.971 155.824L29.7175 151.844C29.6348 151.829 29.5554 151.796 29.4837 151.746C29.4121 151.697 29.3497 151.631 29.3001 151.553C29.2505 151.475 29.2147 151.387 29.1948 151.293C29.1749 151.199 29.1712 151.101 29.184 151.006C29.1968 150.91 29.2257 150.819 29.2693 150.736C29.3128 150.654 29.37 150.582 29.4376 150.525C29.5052 150.468 29.5819 150.427 29.6632 150.405C29.7445 150.382 29.8289 150.379 29.9115 150.394L52.1649 154.374C52.2476 154.389 52.3271 154.422 52.3987 154.472C52.4703 154.521 52.5328 154.587 52.5823 154.665C52.6319 154.743 52.6677 154.831 52.6876 154.925C52.7076 155.019 52.7113 155.117 52.6985 155.212C52.6857 155.308 52.6567 155.399 52.6132 155.482C52.5696 155.564 52.5124 155.636 52.4448 155.693C52.3772 155.75 52.3005 155.791 52.2192 155.813C52.1379 155.836 52.0535 155.839 51.971 155.824Z" fill="#3F3D56"/>
<path d="M51.9778 150.377L29.7106 146.394C29.545 146.363 29.3967 146.258 29.298 146.101C29.1993 145.945 29.1583 145.749 29.184 145.558C29.2096 145.366 29.2998 145.194 29.4348 145.079C29.5699 144.964 29.7388 144.915 29.9046 144.944L52.1719 148.926C52.3375 148.957 52.4858 149.062 52.5844 149.219C52.6831 149.376 52.7241 149.571 52.6985 149.763C52.6728 149.955 52.5826 150.127 52.4476 150.242C52.3126 150.357 52.1437 150.405 51.9778 150.377H51.9778Z" fill="#3F3D56"/>
<path d="M39.1744 165.465C43.5801 166.332 47.5314 163.912 48 160.061L32.0457 156.923C31.5771 160.774 34.7687 164.599 39.1744 165.465Z" fill="#3F3D56"/>
<path d="M47.0011 93.6542C46.0391 93.4703 45.2431 92.5295 44.8067 91.8989C44.6636 91.6922 44.5243 91.4777 44.3846 91.2628C43.8764 90.4802 43.3966 89.7411 42.7284 89.3557C41.2533 88.5043 39.5154 89.6935 38.0106 90.9693L37.6471 90.3135C39.3015 88.9104 41.2306 87.6142 43.0001 88.6349C43.8039 89.0987 44.3539 89.9457 44.8856 90.7647C45.021 90.9733 45.1562 91.1812 45.2948 91.3818C45.7486 92.0373 46.6535 93.0996 47.6232 92.8546C48.0318 92.7072 48.4119 92.4583 48.7401 92.1231C48.9902 91.8922 49.2544 91.686 49.5305 91.5061C50.0904 91.174 50.7171 91.0541 51.3319 91.1616C51.9467 91.2691 52.5221 91.5992 52.9857 92.1102C53.1509 92.3039 53.3074 92.5087 53.4545 92.7236C53.7436 93.1314 54.0166 93.5162 54.3719 93.6561C54.8972 93.8639 55.4524 93.4924 56.0407 93.1C56.6474 92.6949 57.2746 92.276 57.986 92.3793C58.0091 92.3827 58.0325 92.3866 58.0554 92.391C59.3214 92.6333 59.9051 94.3654 60.2353 95.6581L59.6223 95.8975C59.1736 94.1404 58.6271 93.2665 57.9108 93.1691C57.4011 93.095 56.8887 93.4373 56.346 93.7996C55.6658 94.254 54.9618 94.7237 54.1768 94.4137C53.6514 94.2069 53.3055 93.7195 52.9713 93.2482C52.8396 93.0552 52.6996 92.8713 52.5518 92.697C52.1827 92.2971 51.7273 92.0388 51.2414 91.9538C50.7555 91.8689 50.2601 91.9609 49.8158 92.2186C49.5698 92.3805 49.3342 92.5655 49.1111 92.7722C48.7123 93.1746 48.2492 93.4681 47.7522 93.6336C47.5049 93.6959 47.2505 93.7029 47.0011 93.6542Z" fill="#D0CDE1"/>
</svg>
