<svg width="16" height="15" viewBox="0 0 16 15" fill="none" xmlns="http://www.w3.org/2000/svg">
<path fill-rule="evenodd" clip-rule="evenodd" d="M15.817 0.112823C15.8743 0.159759 15.9204 0.218822 15.952 0.285748C15.9837 0.352674 16 0.425792 16 0.499823V13.4998C15.9999 13.6154 15.9598 13.7273 15.8866 13.8167C15.8133 13.906 15.7113 13.9672 15.598 13.9898L10.598 14.9898C10.5333 15.0027 10.4667 15.0027 10.402 14.9898L5.5 14.0098L0.598 14.9898C0.525489 15.0043 0.450665 15.0025 0.378921 14.9846C0.307176 14.9667 0.240296 14.9331 0.183099 14.8863C0.125903 14.8394 0.0798134 14.7804 0.0481518 14.7136C0.0164902 14.6468 4.46527e-05 14.5738 0 14.4998L0 1.49982C6.9782e-05 1.38428 0.0401561 1.27232 0.113443 1.18299C0.186731 1.09366 0.288695 1.03247 0.402 1.00982L5.402 0.00982311C5.46669 -0.00310762 5.53331 -0.00310762 5.598 0.00982311L10.5 0.989823L15.402 0.00982311C15.4745 -0.00476107 15.5493 -0.00308757 15.6211 0.0147231C15.6928 0.0325338 15.7597 0.0660382 15.817 0.112823ZM10 1.90982L6 1.10982V13.0898L10 13.8898V1.90982ZM11 13.8898L15 13.0898V1.10982L11 1.90982V13.8898ZM5 13.0898V1.10982L1 1.90982V13.8898L5 13.0898Z" fill="white"/>
</svg>
