<svg width="329" height="343" viewBox="0 0 329 343" fill="none" xmlns="http://www.w3.org/2000/svg">
<g clip-path="url(#clip0)">
<path d="M329 328.252H0V329.109H329V328.252Z" fill="#3F3D56"/>
<path d="M313.337 318.522H303.303V328.527H313.337V318.522Z" fill="#FF966E"/>
<path d="M49.6154 315.013L41.8152 321.306L48.1265 329.085L55.9268 322.791L49.6154 315.013Z" fill="#FF966E"/>
<path d="M164.93 39.0045H164.07V179.482H164.93V39.0045Z" fill="#3F3D56"/>
<path d="M269.299 52.2814H212.604V53.1379H269.299V52.2814Z" fill="#3F3D56"/>
<path d="M116.396 52.2814H59.701V53.1379H116.396V52.2814Z" fill="#3F3D56"/>
<path d="M59.8772 8.13045L59.5249 7.34916C81.3895 -2.4585 100.599 -2.4495 116.621 7.37489L116.171 8.10472C100.407 -1.5622 81.4669 -1.5532 59.8772 8.13045Z" fill="#3F3D56"/>
<path d="M211.063 8.13041L210.71 7.34913C232.575 -2.45832 251.784 -2.44933 267.806 7.37485L267.356 8.10469C251.592 -1.56244 232.653 -1.55386 211.063 8.13041Z" fill="#3F3D56"/>
<path d="M88.0483 52.2814C95.4018 52.2814 101.363 46.3372 101.363 39.0046C101.363 31.672 95.4018 25.7278 88.0483 25.7278C80.6948 25.7278 74.7337 31.672 74.7337 39.0046C74.7337 46.3372 80.6948 52.2814 88.0483 52.2814Z" fill="#2D3CB9"/>
<path d="M240.952 52.2814C248.305 52.2814 254.266 46.3372 254.266 39.0046C254.266 31.672 248.305 25.7278 240.952 25.7278C233.598 25.7278 227.637 31.672 227.637 39.0046C227.637 46.3372 233.598 52.2814 240.952 52.2814Z" fill="#2D3CB9"/>
<path d="M29.2063 162.779C42.9644 162.779 54.1175 151.657 54.1175 137.938C54.1175 124.219 42.9644 113.098 29.2063 113.098C15.4482 113.098 4.29504 124.219 4.29504 137.938C4.29504 151.657 15.4482 162.779 29.2063 162.779Z" fill="#FF966E"/>
<path d="M299.794 162.779C313.552 162.779 324.705 151.657 324.705 137.938C324.705 124.219 313.552 113.098 299.794 113.098C286.036 113.098 274.882 124.219 274.882 137.938C274.882 151.657 286.036 162.779 299.794 162.779Z" fill="#FF966E"/>
<path d="M168.6 265.424C166.573 265.424 164.465 265.352 162.324 265.21C157.912 264.902 153.525 264.302 149.192 263.417C113.878 256.233 88.0085 231.859 87.7513 231.614L88.3453 230.995C88.6007 231.238 114.299 255.444 149.364 262.578C153.659 263.456 158.008 264.049 162.382 264.355C164.723 264.511 167.024 264.584 169.221 264.565C173.803 264.539 178.376 264.158 182.899 263.427C203.643 260.052 223.071 249.144 240.643 231.007L241.26 231.601C223.557 249.875 203.968 260.867 183.038 264.272C178.471 265.011 173.854 265.395 169.227 265.421C169.019 265.423 168.809 265.424 168.6 265.424Z" fill="#3F3D56"/>
<path d="M29.2063 163.207C23.4298 163.207 17.7831 161.499 12.9801 158.299C8.1772 155.099 4.43376 150.55 2.22321 145.229C0.0126571 139.907 -0.565728 134.051 0.561203 128.402C1.68813 122.752 4.46976 117.563 8.55433 113.49C12.6389 109.417 17.843 106.644 23.5084 105.52C29.1739 104.396 35.0463 104.973 40.383 107.177C45.7198 109.381 50.2812 113.114 53.4904 117.903C56.6996 122.693 58.4125 128.323 58.4125 134.084C58.4038 141.805 55.3239 149.207 49.8485 154.667C44.3732 160.127 36.9496 163.198 29.2063 163.207ZM29.2063 105.817C23.5997 105.817 18.1191 107.475 13.4574 110.581C8.79571 113.687 5.16237 118.101 3.01683 123.266C0.871295 128.431 0.309923 134.115 1.40371 139.598C2.49749 145.081 5.19731 150.118 9.16174 154.071C13.1262 158.024 18.1772 160.716 23.676 161.807C29.1748 162.898 34.8745 162.338 40.0543 160.199C45.2341 158.059 49.6613 154.436 52.7762 149.788C55.891 145.139 57.5535 139.674 57.5535 134.084C57.5451 126.589 54.5558 119.404 49.2414 114.105C43.9271 108.806 36.7218 105.825 29.2063 105.817Z" fill="#3F3D56"/>
<path d="M299.794 163.207C294.017 163.207 288.371 161.499 283.568 158.299C278.765 155.099 275.021 150.55 272.811 145.229C270.6 139.907 270.022 134.051 271.149 128.402C272.276 122.752 275.057 117.563 279.142 113.49C283.226 109.417 288.43 106.644 294.096 105.52C299.761 104.396 305.634 104.973 310.97 107.177C316.307 109.381 320.869 113.114 324.078 117.903C327.287 122.693 329 128.323 329 134.084C328.991 141.805 325.911 149.207 320.436 154.667C314.961 160.127 307.537 163.198 299.794 163.207ZM299.794 105.817C294.187 105.817 288.706 107.475 284.045 110.581C279.383 113.687 275.75 118.101 273.604 123.266C271.459 128.431 270.897 134.115 271.991 139.598C273.085 145.081 275.785 150.118 279.749 154.071C283.714 158.024 288.765 160.716 294.263 161.807C299.762 162.898 305.462 162.338 310.642 160.199C315.821 158.059 320.249 154.436 323.364 149.788C326.478 145.139 328.141 139.674 328.141 134.084C328.132 126.589 325.143 119.404 319.829 114.105C314.515 108.806 307.309 105.825 299.794 105.817Z" fill="#3F3D56"/>
<path d="M150.756 185.049C152.891 185.049 154.621 183.324 154.621 181.195C154.621 179.066 152.891 177.34 150.756 177.34C148.621 177.34 146.89 179.066 146.89 181.195C146.89 183.324 148.621 185.049 150.756 185.049Z" fill="#3F3D56"/>
<path d="M178.244 185.049C180.379 185.049 182.11 183.324 182.11 181.195C182.11 179.066 180.379 177.34 178.244 177.34C176.109 177.34 174.379 179.066 174.379 181.195C174.379 183.324 176.109 185.049 178.244 185.049Z" fill="#3F3D56"/>
<path d="M164.5 295.547C170.43 295.547 175.238 293.821 175.238 291.692C175.238 289.563 170.43 287.837 164.5 287.837C158.57 287.837 153.762 289.563 153.762 291.692C153.762 293.821 158.57 295.547 164.5 295.547Z" fill="#F2F2F2"/>
<path d="M254.456 250.716C250.055 243.302 241.35 242.956 241.35 242.956C241.35 242.956 232.866 241.874 227.424 253.166C222.352 263.691 215.351 273.853 226.297 276.317L228.274 270.181L229.499 276.774C231.057 276.885 232.621 276.912 234.182 276.853C245.904 276.476 257.068 276.964 256.708 272.769C256.23 267.193 258.69 257.85 254.456 250.716Z" fill="#2F2E41"/>
<path d="M225.672 315.645C225.543 316.46 225.356 317.265 225.111 318.054C224.836 318.826 224.411 319.54 224.159 320.32C223.356 322.807 224.469 325.579 226.246 327.498C227.787 329.156 229.776 330.334 231.973 330.89C233.59 331.235 235.24 331.408 236.895 331.405C241.469 331.56 246.161 331.698 250.496 330.232C251.865 329.758 253.188 329.159 254.447 328.442C254.845 328.253 255.195 327.978 255.472 327.637C255.763 327.138 255.892 326.561 255.842 325.986C255.833 324.052 255.44 322.128 255.533 320.197C255.585 319.127 255.785 318.058 255.687 316.991C255.55 315.78 255.041 314.641 254.23 313.729C253.418 312.817 252.344 312.177 251.154 311.898C249.909 311.706 248.642 311.706 247.398 311.898C244.148 312.209 240.885 312.355 237.62 312.334C234.285 312.313 230.97 311.805 227.651 311.752C226.67 311.736 226.69 312.038 226.377 312.985C226.089 313.857 225.854 314.745 225.672 315.645Z" fill="#2F2E41"/>
<path d="M235.138 267.897C235.039 268.746 234.753 269.563 234.3 270.289C233.72 271.08 232.774 271.532 232.149 272.29C231.21 273.429 231.156 275.033 231.152 276.509C231.148 277.868 231.176 279.318 231.936 280.446C232.477 281.147 233.149 281.737 233.914 282.185C236.765 284.1 239.845 286.051 243.282 286.114C244.706 286.14 246.233 285.773 247.17 284.704C247.575 284.201 247.893 283.635 248.112 283.029C248.99 280.869 249.523 278.584 249.69 276.259C249.817 275.166 249.715 274.058 249.39 273.007C248.972 271.846 248.128 270.891 247.57 269.79C246.91 268.481 246.669 267.002 246.879 265.552C246.906 265.45 246.898 265.342 246.854 265.245C246.809 265.194 246.751 265.153 246.687 265.127C246.623 265.102 246.554 265.091 246.485 265.096L239.67 264.607C239.035 264.575 238.403 264.503 237.777 264.391C237.41 264.316 236.44 263.796 236.089 263.935C235.441 264.191 235.271 267.203 235.138 267.897Z" fill="#FFB8B8"/>
<path opacity="0.1" d="M235.138 267.897C235.039 268.746 234.753 269.563 234.3 270.289C233.72 271.08 232.774 271.532 232.149 272.29C231.21 273.429 231.156 275.033 231.152 276.509C231.148 277.868 231.176 279.318 231.936 280.446C232.477 281.147 233.149 281.737 233.914 282.185C236.765 284.1 239.845 286.051 243.282 286.114C244.706 286.14 246.233 285.773 247.17 284.704C247.575 284.201 247.893 283.635 248.112 283.029C248.99 280.869 249.523 278.584 249.69 276.259C249.817 275.166 249.715 274.058 249.39 273.007C248.972 271.846 248.128 270.891 247.57 269.79C246.91 268.481 246.669 267.002 246.879 265.552C246.906 265.45 246.898 265.342 246.854 265.245C246.809 265.194 246.751 265.153 246.687 265.127C246.623 265.102 246.554 265.091 246.485 265.096L239.67 264.607C239.035 264.575 238.403 264.503 237.777 264.391C237.41 264.316 236.44 263.796 236.089 263.935C235.441 264.191 235.271 267.203 235.138 267.897Z" fill="black"/>
<path d="M241.655 268.808C247.177 268.808 251.654 264.344 251.654 258.838C251.654 253.332 247.177 248.868 241.655 248.868C236.133 248.868 231.657 253.332 231.657 258.838C231.657 264.344 236.133 268.808 241.655 268.808Z" fill="#FFB8B8"/>
<path d="M236.54 281.169C237.034 281.739 237.63 282.214 238.296 282.568C238.992 282.855 239.738 282.996 240.49 282.985C242.293 283.035 244.247 282.706 245.5 281.414C247.117 279.748 247.063 277.062 248.33 275.119C248.432 274.943 248.572 274.791 248.739 274.674C248.951 274.558 249.191 274.503 249.433 274.514C251.033 274.5 252.427 275.534 253.684 276.52C254.276 276.927 254.784 277.443 255.181 278.041C255.43 278.524 255.6 279.045 255.686 279.582C256.24 282.634 256.583 285.722 256.712 288.822C256.823 290.531 256.934 292.242 256.926 293.955C256.899 299.599 255.583 305.149 254.275 310.64C254.106 311.347 253.876 312.138 253.231 312.477C252.943 312.606 252.634 312.681 252.319 312.699C248.579 313.201 244.817 313.513 241.045 313.635C239.573 313.658 238.101 313.622 236.63 313.528C236.377 313.525 236.126 313.481 235.887 313.399C235.562 313.244 235.283 313.007 235.076 312.713C233.036 310.149 232.915 306.604 232.928 303.331C232.96 295.328 233.247 287.332 233.788 279.342C233.833 278.682 233.843 277.881 233.366 277.363C234.294 278.734 235.358 280.009 236.54 281.169Z" fill="#D0CDE1"/>
<path d="M234.422 269.657C234.085 270.266 231.595 271.78 231.114 272.285C228.429 275.108 223.527 275.002 221.071 278.025C220.257 279.134 219.696 280.406 219.428 281.754C218.961 283.633 218.712 285.683 219.494 287.455C220.247 289.16 221.831 290.339 222.907 291.862C224.088 293.534 224.62 295.564 225.129 297.546C225.504 299.009 225.883 300.508 225.737 302.012C225.571 303.721 224.741 305.286 224.251 306.932C223.762 308.578 223.677 310.539 224.81 311.833C225.641 312.784 226.946 313.16 228.193 313.372C229.791 313.612 231.402 313.752 233.016 313.791C234.442 313.854 236.014 313.866 237.11 312.955C237.52 312.568 237.846 312.102 238.068 311.584C238.29 311.067 238.402 310.51 238.399 309.947C238.386 308.824 238.275 307.704 238.067 306.6C237.915 305.446 237.857 304.282 237.808 303.119C237.589 297.9 237.559 292.679 237.718 287.454C237.798 286.368 237.745 285.277 237.559 284.204C237.253 282.806 236.496 281.557 235.864 280.273C234.6 277.854 234.028 275.135 234.21 272.414C234.401 269.618 235.624 267.488 234.422 269.657Z" fill="#FF966E"/>
<path d="M248.463 269.869C248.977 270.396 250.725 270.57 251.379 270.909C251.995 271.193 252.637 271.415 253.297 271.571C255.683 272.258 257.954 273.297 260.032 274.654C260.464 274.906 260.845 275.234 261.158 275.624C261.488 276.158 261.7 276.756 261.781 277.378C262.166 278.948 262.357 280.559 262.352 282.175C262.275 283.887 261.758 285.545 261.245 287.181L259.328 293.292C257.897 297.854 256.457 302.461 256.054 307.223C255.832 309.863 255.931 312.52 256.349 315.136C256.389 315.263 256.4 315.397 256.384 315.529C256.367 315.661 256.322 315.788 256.253 315.902C256.126 316.027 255.96 316.103 255.783 316.117C254.858 316.262 253.962 315.791 253.124 315.375C250.562 314.104 247.828 313.211 245.007 312.727C246.109 311.138 246.96 309.39 247.528 307.544C247.851 306.372 248.106 305.182 248.29 303.98L249.182 298.837C249.545 296.957 249.8 295.058 249.947 293.15C250.014 292.433 249.972 291.711 249.823 291.007C249.617 290.337 249.344 289.69 249.008 289.075C247.538 286.026 246.849 282.548 247.427 279.215C247.68 277.756 248.172 276.296 247.967 274.83C247.77 273.42 247.975 272.325 247.612 270.93C246.123 265.202 247.495 268.877 248.463 269.869Z" fill="#FF966E"/>
<path d="M221.046 282.845C220.376 284.231 219.256 285.413 218.874 286.904C218.726 287.601 218.662 288.313 218.685 289.025C218.619 290.099 218.725 291.176 219.001 292.215C219.213 292.873 219.56 293.479 219.809 294.124C220.157 295.025 220.311 295.988 220.264 296.952C220.196 298.288 219.741 299.584 219.706 300.921C219.65 303.023 220.625 304.999 221.576 306.876C221.816 306.284 222.182 305.752 222.649 305.317C223.116 304.881 223.673 304.553 224.281 304.354C224.889 304.156 225.533 304.092 226.168 304.168C226.803 304.244 227.414 304.457 227.958 304.792C228.175 304.526 228.279 304.184 228.245 303.841C228.315 301.402 228.383 298.964 228.449 296.525C228.552 292.753 228.65 288.931 227.78 285.258C227.453 283.578 226.724 282.002 225.655 280.663C225.065 279.986 223.061 278.202 222.093 278.961C221.657 279.302 221.759 280.23 221.69 280.701C221.586 281.444 221.369 282.167 221.046 282.845Z" fill="#FF966E"/>
<path d="M262.547 278.85C262.817 279.849 262.932 280.884 262.89 281.919C262.902 284.027 262.874 286.135 262.806 288.242C262.816 289.323 262.677 290.401 262.394 291.444C262.177 292.122 261.843 292.759 261.62 293.435C260.95 295.461 261.316 297.659 261.373 299.792C261.414 300.483 261.355 301.175 261.198 301.849C260.845 303.171 259.895 304.239 259.232 305.438C258.602 306.575 258.222 307.851 257.47 308.912C256.719 309.974 255.417 310.815 254.155 310.489C253.199 310.242 252.52 309.399 252.05 308.532C251.025 306.628 250.674 304.435 251.055 302.307C251.527 299.718 253.052 297.421 253.602 294.848C254.357 291.314 253.209 287.668 253.243 284.055C253.228 283.488 253.305 282.923 253.471 282.382C253.826 281.58 254.328 280.852 254.952 280.235C255.667 279.408 256.331 278.539 256.941 277.632C257.351 277.022 257.908 275.455 258.634 275.325C260.256 275.034 262.145 277.6 262.547 278.85Z" fill="#FF966E"/>
<path d="M212.63 314.073C211.733 313.848 210.809 313.75 209.884 313.782C208.913 313.836 207.965 314.095 207.102 314.542C206.239 314.989 205.481 315.615 204.88 316.377C204.278 317.139 203.846 318.02 203.612 318.961C203.378 319.902 203.348 320.883 203.523 321.836C203.747 322.87 204.113 323.867 204.611 324.801C205.339 326.274 206.212 327.744 207.56 328.688C208.372 329.207 209.247 329.622 210.163 329.923L217.261 332.59C218.306 332.982 219.35 333.375 220.405 333.738C225.703 335.565 231.227 336.66 236.823 336.993C238.526 337.152 240.243 337.065 241.921 336.736C242.327 336.683 242.698 336.482 242.965 336.173C243.1 335.938 243.18 335.675 243.198 335.405L243.635 332.355C243.733 331.931 243.72 331.488 243.598 331.07C243.341 330.579 242.925 330.188 242.418 329.961C237.751 327.288 232.302 325.814 228.374 322.145C227.449 321.282 226.675 319.913 225.552 319.326C224.277 318.661 222.777 318.281 221.46 317.668C218.581 316.328 215.75 314.788 212.63 314.073Z" fill="#2F2E41"/>
<path opacity="0.1" d="M219.717 318.184C222.226 318.968 232.819 324.4 234.635 326.296C234.392 326.383 226.134 321.769 225.886 321.695C223.615 321.073 221.391 320.291 219.23 319.356C218.8 319.157 216.435 318.224 216.542 317.683C216.662 317.072 219.271 318.045 219.717 318.184Z" fill="black"/>
<path d="M251.019 338.575C251.162 338.585 251.303 338.543 251.417 338.458C251.467 338.394 251.504 338.32 251.525 338.242C251.547 338.164 251.552 338.082 251.542 338.001L251.53 333.847C250.301 333.341 249.001 333.028 247.676 332.92L241.539 332.102C241.68 332.121 240.58 334.738 240.748 335.087C241.046 335.703 243.319 336.249 243.96 336.54C246.19 337.55 248.508 338.662 251.019 338.575Z" fill="#FFB8B8"/>
<path d="M231.764 333.833C230.605 334.017 229.312 334.18 228.562 335.079C227.61 336.22 228.015 337.92 228.469 339.333C228.497 339.515 228.561 339.69 228.658 339.848C228.754 340.005 228.882 340.141 229.032 340.248C229.183 340.356 229.353 340.432 229.534 340.472C229.714 340.513 229.901 340.517 230.083 340.484C231.14 340.551 232.264 340.603 233.188 340.086C233.606 339.81 234.008 339.512 234.394 339.192C235.074 338.74 235.823 338.399 236.611 338.181C238.06 337.727 239.551 337.42 241.062 337.267C241.657 337.239 242.247 337.136 242.816 336.958C243.1 336.867 243.359 336.712 243.573 336.504C243.787 336.297 243.95 336.043 244.05 335.763C244.264 335.008 243.824 334.238 243.402 333.576C242.916 332.709 242.285 331.931 241.536 331.276C240.392 330.39 239.827 331.07 238.675 331.637C236.494 332.71 234.165 333.45 231.764 333.833Z" fill="#FFB8B8"/>
<path d="M228.736 334.874L221.378 332.705C220.496 332.399 219.574 332.22 218.64 332.176C218.173 332.157 217.707 332.237 217.273 332.412C216.84 332.587 216.449 332.852 216.126 333.19C215.555 333.858 215.392 334.77 215.25 335.636L214.946 337.488C214.743 338.421 214.685 339.38 214.775 340.331C214.824 340.807 214.981 341.265 215.235 341.671C215.488 342.077 215.831 342.42 216.237 342.674C217.255 343.228 218.503 342.957 219.639 342.726C221.934 342.258 224.269 342.008 226.612 341.98C227.492 341.97 228.416 341.981 229.194 341.569C229.646 341.302 230.025 340.929 230.3 340.483C230.574 340.036 230.735 339.53 230.768 339.007C230.913 337.425 230.384 335.359 228.736 334.874Z" fill="#2F2E41"/>
<path d="M253.912 332.984C254.865 332.817 255.707 332.277 256.621 331.958C257.908 331.508 259.302 331.508 260.665 331.513C261.166 331.468 261.669 331.568 262.114 331.803C262.715 332.202 262.869 332.999 262.971 333.711L263.587 338.007C263.751 338.808 263.768 339.633 263.637 340.44C263.566 340.843 263.387 341.22 263.121 341.531C262.854 341.842 262.508 342.076 262.12 342.209C261.158 342.459 260.215 341.846 259.306 341.443C257.036 340.437 254.396 340.694 252.029 339.942C251.803 339.897 251.588 339.804 251.401 339.67C251.213 339.536 251.056 339.364 250.94 339.165C250.859 338.927 250.83 338.674 250.855 338.423C250.896 337.042 250.604 335.157 251.02 333.837C251.395 332.651 252.847 332.984 253.912 332.984Z" fill="#2F2E41"/>
<path d="M269.482 312.344C270.952 311.977 272.476 311.873 273.983 312.038C275.186 312.17 276.426 312.504 277.304 313.334C278.374 314.345 278.717 315.908 278.746 317.377C278.793 320.303 277.82 323.154 275.993 325.444C275.546 326.023 275.016 326.532 274.418 326.955C273.774 327.357 273.087 327.687 272.371 327.939L256.473 334.191C252.291 335.836 248.094 337.486 243.732 338.57C243.612 338.628 243.483 338.661 243.351 338.668C243.218 338.674 243.086 338.655 242.962 338.61C242.837 338.565 242.723 338.495 242.626 338.405C242.528 338.316 242.45 338.208 242.396 338.087C241.003 336.103 239.834 333.972 238.911 331.732C238.868 331.679 238.837 331.616 238.823 331.548C238.809 331.481 238.811 331.411 238.83 331.345C238.849 331.279 238.883 331.218 238.93 331.168C238.977 331.118 239.036 331.079 239.101 331.057L250.345 324.614C251.17 324.185 251.938 323.657 252.634 323.042C253.12 322.572 253.518 322.02 253.809 321.411C254.042 320.925 254.064 319.78 254.362 319.421C254.653 319.07 255.65 319.042 256.111 318.903C256.76 318.705 257.396 318.465 258.015 318.186C260.53 317.064 262.77 315.433 265.181 314.119C266.534 313.348 267.979 312.752 269.482 312.344Z" fill="#2F2E41"/>
<path opacity="0.1" d="M263.107 317.155C261.176 318.602 258.674 319.932 256.76 321.417C256.106 321.924 245.213 328.03 245.059 328.841C246.845 329.142 258.224 321.204 259.852 320.412C261.453 319.564 262.961 318.552 264.353 317.394C264.717 317.112 266.262 316.262 265.216 315.947C264.626 315.769 263.543 316.866 263.107 317.155Z" fill="black"/>
<path d="M252.51 250.001L243.909 245.509L232.032 247.346L229.575 258.169L235.692 257.934L237.401 253.958V257.869L240.223 257.76L241.861 251.43L242.885 258.169L252.92 257.965L252.51 250.001Z" fill="#2F2E41"/>
<path d="M250.59 272.202H232.082V294.476H250.59V272.202Z" fill="#3F3D56"/>
<path d="M223.296 310.942C223.685 311.602 224.238 312.15 224.901 312.535C225.337 312.733 225.812 312.83 226.29 312.817C226.768 312.804 227.237 312.682 227.661 312.461C228.508 312.009 229.201 311.316 229.653 310.47C230.588 308.824 230.781 306.855 230.665 304.967C230.548 303.079 230.144 301.22 229.965 299.337C229.835 297.968 229.824 296.591 229.814 295.216C229.781 294.927 229.842 294.635 229.987 294.382C230.237 294.134 230.56 293.973 230.909 293.923C232.796 293.364 234.048 291.601 234.946 289.855C235.545 288.688 236.067 287.414 235.951 286.108C235.835 284.803 234.894 283.488 233.587 283.355C232.509 283.245 231.514 283.928 230.737 284.68C228.775 286.59 227.515 289.102 227.158 291.812C226.987 293.139 227.036 294.503 226.674 295.791C225.901 298.542 223.483 300.229 222.277 302.704C220.949 305.432 221.682 308.529 223.296 310.942Z" fill="#FFB8B8"/>
<path d="M258.885 300.432C258.61 301.07 258.21 301.647 257.708 302.128C257.205 302.609 256.612 302.985 255.961 303.234C255.153 303.557 254.261 303.612 253.42 303.389C253.002 303.273 252.617 303.063 252.294 302.775C251.971 302.487 251.719 302.129 251.557 301.728C251.429 301.324 251.358 300.904 251.348 300.481C251.227 298.625 251.274 296.714 251.949 294.981C252.21 294.313 252.561 293.679 252.767 292.992C252.969 292.198 253.073 291.383 253.075 290.564L253.297 285.502C253.334 285.135 253.308 284.764 253.222 284.404C253 283.672 252.314 283.196 251.684 282.759C250.163 281.704 248.659 280.473 247.922 278.778C247.669 278.268 247.578 277.693 247.662 277.129C247.87 276.124 248.887 275.473 249.893 275.254C250.551 275.111 251.231 275.102 251.893 275.227C252.554 275.353 253.183 275.611 253.742 275.986C254.301 276.36 254.778 276.844 255.145 277.407C255.511 277.97 255.759 278.602 255.875 279.264C255.974 279.835 255.973 280.418 256.031 280.995C256.155 282.219 256.544 283.398 256.788 284.604C257.388 287.574 257.077 290.644 257.671 293.613C258.167 296.096 260.039 297.716 258.885 300.432Z" fill="#FFB8B8"/>
<path d="M241.811 283.126C243.471 283.126 244.817 281.784 244.817 280.128C244.817 278.473 243.471 277.13 241.811 277.13C240.15 277.13 238.804 278.473 238.804 280.128C238.804 281.784 240.15 283.126 241.811 283.126Z" fill="#FF966E"/>
<path d="M91.0548 47.9985C92.9525 47.9985 94.4908 46.4645 94.4908 44.5723C94.4908 42.68 92.9525 41.146 91.0548 41.146C89.1571 41.146 87.6188 42.68 87.6188 44.5723C87.6188 46.4645 89.1571 47.9985 91.0548 47.9985Z" fill="#F2F2F2"/>
<path d="M245.247 47.9985C247.144 47.9985 248.683 46.4645 248.683 44.5723C248.683 42.68 247.144 41.146 245.247 41.146C243.349 41.146 241.811 42.68 241.811 44.5723C241.811 46.4645 243.349 47.9985 245.247 47.9985Z" fill="#F2F2F2"/>
</g>
<defs>
<clipPath id="clip0">
<rect width="329" height="343" fill="white"/>
</clipPath>
</defs>
</svg>
