<svg width="1133" height="550" viewBox="0 0 1133 550" fill="none" xmlns="http://www.w3.org/2000/svg">
<path d="M560.639 51.9927H558.803V277.247H560.639V51.9927Z" fill="#3F3D56"/>
<path d="M568.486 451.984C564.153 451.984 559.647 451.869 555.069 451.642C545.636 451.147 536.257 450.186 526.994 448.765C451.491 437.246 396.183 398.163 395.633 397.769L396.903 396.777C397.449 397.168 452.393 435.982 527.361 447.42C536.544 448.828 545.842 449.78 555.193 450.271C560.198 450.52 565.118 450.637 569.815 450.606C579.612 450.565 589.389 449.955 599.059 448.782C643.41 443.37 684.946 425.879 722.515 396.796L723.835 397.75C685.986 427.052 644.105 444.677 599.355 450.138C589.592 451.322 579.719 451.938 569.828 451.98C569.383 451.983 568.935 451.984 568.486 451.984Z" fill="#3F3D56"/>
<path d="M257.258 260.819C279.21 260.819 297.005 243.023 297.005 221.072C297.005 199.12 279.21 181.324 257.258 181.324C235.306 181.324 217.511 199.12 217.511 221.072C217.511 243.023 235.306 260.819 257.258 260.819Z" fill="#FF966E"/>
<path d="M257.259 261.504C248.042 261.504 239.032 258.771 231.369 253.651C223.705 248.53 217.733 241.252 214.205 232.737C210.678 224.222 209.756 214.852 211.554 205.813C213.352 196.773 217.79 188.47 224.307 181.952C230.824 175.435 239.128 170.997 248.167 169.199C257.207 167.401 266.577 168.324 275.092 171.851C283.607 175.378 290.885 181.351 296.005 189.014C301.126 196.677 303.859 205.687 303.859 214.904C303.845 227.259 298.931 239.104 290.195 247.84C281.458 256.576 269.613 261.49 257.259 261.504ZM257.259 169.674C248.313 169.674 239.568 172.327 232.13 177.297C224.692 182.267 218.895 189.331 215.472 197.595C212.048 205.86 211.153 214.954 212.898 223.728C214.643 232.501 218.951 240.561 225.276 246.886C231.602 253.212 239.661 257.519 248.435 259.264C257.208 261.01 266.303 260.114 274.567 256.691C282.832 253.267 289.896 247.47 294.866 240.032C299.836 232.594 302.488 223.849 302.488 214.904C302.475 202.912 297.705 191.416 289.226 182.937C280.747 174.457 269.25 169.688 257.259 169.674Z" fill="#3F3D56"/>
<path d="M863.909 260.819C885.861 260.819 903.657 243.023 903.657 221.072C903.657 199.12 885.861 181.324 863.909 181.324C841.958 181.324 824.162 199.12 824.162 221.072C824.162 243.023 841.958 260.819 863.909 260.819Z" fill="#FF966E"/>
<path d="M863.91 261.504C854.693 261.504 845.684 258.771 838.02 253.651C830.357 248.53 824.384 241.252 820.857 232.737C817.33 224.222 816.407 214.852 818.205 205.813C820.003 196.773 824.441 188.47 830.959 181.952C837.476 175.435 845.779 170.997 854.819 169.199C863.858 167.401 873.228 168.324 881.743 171.851C890.258 175.378 897.536 181.351 902.657 189.014C907.777 196.677 910.51 205.687 910.51 214.904C910.496 227.259 905.582 239.104 896.846 247.84C888.11 256.576 876.265 261.49 863.91 261.504ZM863.91 169.674C854.964 169.674 846.22 172.327 838.782 177.297C831.344 182.267 825.546 189.331 822.123 197.595C818.7 205.86 817.804 214.954 819.549 223.728C821.294 232.501 825.602 240.561 831.928 246.886C838.253 253.212 846.312 257.519 855.086 259.264C863.86 261.01 872.954 260.114 881.219 256.691C889.483 253.267 896.547 247.47 901.517 240.032C906.487 232.594 909.14 223.849 909.14 214.904C909.126 202.912 904.357 191.416 895.877 182.937C887.398 174.457 875.901 169.688 863.91 169.674Z" fill="#3F3D56"/>
<path d="M530.336 296.726C534.9 296.726 538.6 293.959 538.6 290.546C538.6 287.132 534.9 284.365 530.336 284.365C525.771 284.365 522.071 287.132 522.071 290.546C522.071 293.959 525.771 296.726 530.336 296.726Z" fill="#3F3D56"/>
<path d="M589.106 296.726C593.671 296.726 597.371 293.959 597.371 290.546C597.371 287.132 593.671 284.365 589.106 284.365C584.542 284.365 580.842 287.132 580.842 290.546C580.842 293.959 584.542 296.726 589.106 296.726Z" fill="#3F3D56"/>
<path d="M559.721 473.908C572.399 473.908 582.678 471.141 582.678 467.728C582.678 464.314 572.399 461.547 559.721 461.547C547.042 461.547 536.764 464.314 536.764 467.728C536.764 471.141 547.042 473.908 559.721 473.908Z" fill="#F2F2F2"/>
<path d="M439.289 83.8331H318.076V85.2066H439.289V83.8331Z" fill="#3F3D56"/>
<path d="M318.452 13.0372L317.699 11.7844C364.446 -3.9422 405.516 -3.92778 439.77 11.8256L438.807 12.9959C405.104 -2.50498 364.611 -2.49055 318.452 13.0372Z" fill="#3F3D56"/>
<path d="M378.792 85.217C394.573 85.217 407.367 72.4233 407.367 56.6414C407.367 40.8594 394.573 28.0657 378.792 28.0657C363.01 28.0657 350.216 40.8594 350.216 56.6414C350.216 72.4233 363.01 85.217 378.792 85.217Z" fill="#2D3CB9"/>
<path d="M383.259 76.9682C386.294 76.9682 388.754 74.5079 388.754 71.4729C388.754 68.4379 386.294 65.9775 383.259 65.9775C380.224 65.9775 377.764 68.4379 377.764 71.4729C377.764 74.5079 380.224 76.9682 383.259 76.9682Z" fill="#F2F2F2"/>
<path d="M804.884 83.8331H683.671V85.2066H804.884V83.8331Z" fill="#3F3D56"/>
<path d="M680.374 13.0372L679.621 11.7844C726.368 -3.94187 767.438 -3.92745 801.691 11.8256L800.73 12.9959C767.025 -2.50532 726.534 -2.49157 680.374 13.0372Z" fill="#3F3D56"/>
<path d="M744.386 85.217C760.168 85.217 772.962 72.4233 772.962 56.6414C772.962 40.8594 760.168 28.0657 744.386 28.0657C728.604 28.0657 715.811 40.8594 715.811 56.6414C715.811 72.4233 728.604 85.217 744.386 85.217Z" fill="#2D3CB9"/>
<path d="M751.609 76.9656C754.644 76.9656 757.104 74.5058 757.104 71.4716C757.104 68.4373 754.644 65.9775 751.609 65.9775C748.574 65.9775 746.113 68.4373 746.113 71.4716C746.113 74.5058 748.574 76.9656 751.609 76.9656Z" fill="#F2F2F2"/>
<path d="M1132.48 500.218H0V501.204H1132.48V500.218Z" fill="#3F3D56"/>
<path d="M1111.55 485.309H1098.14V500.306H1111.55V485.309Z" fill="#FF966E"/>
<path d="M759.15 480.049L748.727 489.483L757.16 501.142L767.583 491.708L759.15 480.049Z" fill="#FF966E"/>
<path d="M108.9 464.712L98.4766 474.145L106.91 485.804L117.333 476.37L108.9 464.712Z" fill="#FF966E"/>
<path d="M1032.87 383.673C1026.99 372.56 1015.35 372.042 1015.35 372.042C1015.35 372.042 1004.02 370.42 996.747 387.346C989.969 403.122 980.615 418.354 995.241 422.047L997.883 412.849L999.519 422.732C1001.6 422.899 1003.69 422.939 1005.78 422.852C1021.44 422.286 1036.36 423.017 1035.88 416.73C1035.24 408.372 1038.53 394.366 1032.87 383.673Z" fill="#2F2E41"/>
<path d="M994.405 480.997C994.232 482.219 993.982 483.426 993.655 484.609C993.287 485.766 992.719 486.836 992.383 488.005C991.31 491.732 992.797 495.888 995.171 498.765C997.23 501.249 999.888 503.015 1002.82 503.848C1004.99 504.365 1007.19 504.624 1009.4 504.621C1015.51 504.853 1021.78 505.06 1027.58 502.863C1029.4 502.151 1031.17 501.253 1032.86 500.18C1033.39 499.896 1033.85 499.484 1034.23 498.973C1034.61 498.224 1034.79 497.36 1034.72 496.497C1034.71 493.599 1034.18 490.715 1034.31 487.82C1034.38 486.217 1034.64 484.614 1034.51 483.016C1034.33 481.2 1033.65 479.492 1032.56 478.125C1031.48 476.758 1030.05 475.8 1028.46 475.38C1026.79 475.093 1025.1 475.093 1023.44 475.381C1019.09 475.847 1014.73 476.066 1010.37 476.034C1005.91 476.002 1001.48 475.241 997.05 475.162C995.738 475.138 995.765 475.591 995.347 477.01C994.962 478.317 994.648 479.648 994.405 480.997Z" fill="#2F2E41"/>
<path d="M1007.05 409.426C1006.92 410.699 1006.54 411.923 1005.93 413.012C1005.16 414.198 1003.89 414.876 1003.06 416.011C1001.8 417.719 1001.73 420.123 1001.73 422.335C1001.72 424.372 1001.76 426.546 1002.77 428.237C1003.5 429.287 1004.4 430.172 1005.42 430.843C1009.23 433.714 1013.34 436.637 1017.94 436.732C1019.84 436.771 1021.88 436.221 1023.13 434.618C1023.67 433.865 1024.1 433.017 1024.39 432.108C1025.56 428.87 1026.28 425.445 1026.5 421.96C1026.67 420.322 1026.53 418.662 1026.1 417.085C1025.54 415.345 1024.41 413.913 1023.67 412.264C1022.78 410.302 1022.46 408.085 1022.74 405.912C1022.78 405.759 1022.77 405.596 1022.71 405.452C1022.65 405.374 1022.57 405.314 1022.49 405.275C1022.4 405.236 1022.31 405.22 1022.22 405.228L1013.11 404.495C1012.26 404.447 1011.42 404.339 1010.58 404.171C1010.09 404.059 1008.79 403.28 1008.32 403.487C1007.46 403.871 1007.23 408.386 1007.05 409.426Z" fill="#FFB8B8"/>
<path opacity="0.1" d="M1007.05 409.426C1006.92 410.699 1006.54 411.923 1005.93 413.012C1005.16 414.198 1003.89 414.876 1003.06 416.011C1001.8 417.719 1001.73 420.123 1001.73 422.335C1001.72 424.372 1001.76 426.546 1002.77 428.237C1003.5 429.287 1004.4 430.172 1005.42 430.843C1009.23 433.714 1013.34 436.637 1017.94 436.732C1019.84 436.771 1021.88 436.221 1023.13 434.618C1023.67 433.865 1024.1 433.017 1024.39 432.108C1025.56 428.87 1026.28 425.445 1026.5 421.96C1026.67 420.322 1026.53 418.662 1026.1 417.085C1025.54 415.345 1024.41 413.913 1023.67 412.264C1022.78 410.302 1022.46 408.085 1022.74 405.912C1022.78 405.759 1022.77 405.596 1022.71 405.452C1022.65 405.374 1022.57 405.314 1022.49 405.275C1022.4 405.236 1022.31 405.22 1022.22 405.228L1013.11 404.495C1012.26 404.447 1011.42 404.339 1010.58 404.171C1010.09 404.059 1008.79 403.28 1008.32 403.487C1007.46 403.871 1007.23 408.386 1007.05 409.426Z" fill="black"/>
<path d="M1015.76 410.792C1023.14 410.792 1029.12 404.101 1029.12 395.848C1029.12 387.594 1023.14 380.903 1015.76 380.903C1008.38 380.903 1002.4 387.594 1002.4 395.848C1002.4 404.101 1008.38 410.792 1015.76 410.792Z" fill="#FFB8B8"/>
<path d="M1008.93 429.32C1009.59 430.175 1010.38 430.886 1011.27 431.417C1012.2 431.847 1013.2 432.059 1014.21 432.042C1016.61 432.118 1019.22 431.624 1020.9 429.687C1023.06 427.191 1022.99 423.164 1024.68 420.251C1024.82 419.987 1025 419.76 1025.23 419.584C1025.51 419.411 1025.83 419.329 1026.15 419.346C1028.29 419.323 1030.16 420.874 1031.84 422.352C1032.63 422.961 1033.31 423.735 1033.84 424.631C1034.17 425.356 1034.4 426.136 1034.51 426.941C1035.25 431.517 1035.71 436.144 1035.88 440.791C1036.03 443.353 1036.18 445.918 1036.17 448.486C1036.13 456.946 1034.37 465.264 1032.63 473.495C1032.4 474.555 1032.09 475.741 1031.23 476.249C1030.85 476.442 1030.43 476.555 1030.01 476.581C1025.01 477.334 1019.99 477.802 1014.95 477.984C1012.98 478.018 1011.01 477.965 1009.05 477.825C1008.71 477.82 1008.37 477.754 1008.05 477.631C1007.62 477.398 1007.25 477.043 1006.97 476.602C1004.24 472.758 1004.08 467.445 1004.1 462.539C1004.14 450.543 1004.53 438.557 1005.25 426.581C1005.31 425.593 1005.32 424.392 1004.69 423.615C1005.93 425.67 1007.35 427.581 1008.93 429.32Z" fill="#D0CDE1"/>
<path d="M1006.1 412.064C1005.65 412.978 1002.32 415.246 1001.68 416.004C998.089 420.235 991.54 420.076 988.258 424.608C987.17 426.269 986.421 428.177 986.062 430.197C985.438 433.014 985.105 436.086 986.15 438.742C987.156 441.298 989.273 443.065 990.711 445.348C992.29 447.854 992.999 450.898 993.679 453.868C994.182 456.061 994.688 458.308 994.492 460.562C994.27 463.124 993.162 465.469 992.507 467.937C991.853 470.405 991.74 473.344 993.253 475.283C994.365 476.708 996.108 477.273 997.775 477.59C999.909 477.949 1002.06 478.159 1004.22 478.218C1006.12 478.312 1008.22 478.331 1009.69 476.964C1010.24 476.385 1010.67 475.686 1010.97 474.91C1011.27 474.135 1011.42 473.299 1011.41 472.456C1011.39 470.772 1011.25 469.094 1010.97 467.439C1010.77 465.709 1010.69 463.964 1010.62 462.221C1010.33 454.399 1010.29 446.573 1010.5 438.741C1010.61 437.113 1010.54 435.477 1010.29 433.869C1009.88 431.774 1008.87 429.901 1008.02 427.976C1006.34 424.351 1005.57 420.276 1005.81 416.197C1006.07 412.006 1007.7 408.813 1006.1 412.064Z" fill="#FF966E"/>
<path d="M1024.86 412.382C1025.55 413.172 1027.88 413.433 1028.76 413.942C1029.58 414.367 1030.44 414.699 1031.32 414.934C1034.51 415.963 1037.54 417.52 1040.32 419.554C1040.9 419.932 1041.41 420.425 1041.82 421.008C1042.26 421.809 1042.55 422.706 1042.66 423.638C1043.17 425.991 1043.43 428.406 1043.42 430.828C1043.32 433.395 1042.63 435.88 1041.94 438.332L1039.38 447.492C1037.47 454.33 1035.54 461.235 1035 468.374C1034.71 472.33 1034.84 476.313 1035.4 480.234C1035.45 480.424 1035.47 480.625 1035.44 480.823C1035.42 481.022 1035.36 481.212 1035.27 481.382C1035.1 481.569 1034.88 481.683 1034.64 481.705C1033.41 481.921 1032.21 481.216 1031.09 480.592C1027.66 478.686 1024.01 477.349 1020.24 476.623C1021.71 474.242 1022.85 471.622 1023.61 468.855C1024.04 467.097 1024.38 465.314 1024.63 463.512L1025.82 455.803C1026.31 452.985 1026.65 450.139 1026.84 447.278C1026.93 446.204 1026.88 445.122 1026.68 444.067C1026.4 443.063 1026.04 442.092 1025.59 441.17C1023.62 436.601 1022.7 431.387 1023.48 426.391C1023.81 424.205 1024.47 422.015 1024.2 419.818C1023.93 417.705 1024.21 416.063 1023.72 413.972C1021.73 405.387 1023.57 410.896 1024.86 412.382Z" fill="#FF966E"/>
<path d="M988.223 431.832C987.328 433.911 985.831 435.681 985.321 437.916C985.123 438.961 985.038 440.029 985.068 441.096C984.98 442.705 985.122 444.319 985.49 445.878C985.774 446.863 986.237 447.772 986.57 448.739C987.035 450.089 987.242 451.533 987.178 452.978C987.088 454.98 986.48 456.923 986.432 458.926C986.358 462.077 987.661 465.039 988.932 467.852C989.252 466.966 989.741 466.168 990.366 465.516C990.99 464.863 991.734 464.371 992.546 464.073C993.358 463.776 994.219 463.68 995.067 463.794C995.916 463.907 996.732 464.227 997.459 464.73C997.75 464.33 997.888 463.817 997.843 463.304C997.937 459.648 998.028 455.993 998.115 452.337C998.253 446.683 998.384 440.954 997.221 435.45C996.784 432.932 995.81 430.568 994.382 428.562C993.593 427.547 990.916 424.873 989.622 426.01C989.04 426.521 989.176 427.913 989.084 428.618C988.945 429.732 988.654 430.816 988.223 431.832Z" fill="#FF966E"/>
<path d="M1043.68 425.844C1044.04 427.342 1044.19 428.893 1044.14 430.444C1044.15 433.604 1044.12 436.763 1044.02 439.923C1044.04 441.543 1043.85 443.158 1043.47 444.722C1043.19 445.739 1042.74 446.692 1042.44 447.706C1041.55 450.743 1042.03 454.038 1042.11 457.235C1042.17 458.27 1042.09 459.308 1041.88 460.318C1041.4 462.299 1040.14 463.901 1039.25 465.697C1038.41 467.403 1037.9 469.314 1036.9 470.906C1035.89 472.497 1034.15 473.757 1032.47 473.269C1031.19 472.899 1030.28 471.634 1029.65 470.336C1028.28 467.482 1027.81 464.193 1028.32 461.004C1028.95 457.124 1030.99 453.681 1031.73 449.824C1032.74 444.527 1031.2 439.061 1031.25 433.646C1031.23 432.797 1031.33 431.95 1031.55 431.138C1032.03 429.937 1032.7 428.845 1033.53 427.921C1034.49 426.681 1035.37 425.378 1036.19 424.018C1036.74 423.105 1037.48 420.755 1038.45 420.56C1040.62 420.124 1043.14 423.971 1043.68 425.844Z" fill="#FF966E"/>
<path d="M976.977 478.641C975.779 478.304 974.544 478.157 973.309 478.205C972.011 478.285 970.743 478.673 969.59 479.344C968.437 480.015 967.425 480.952 966.621 482.094C965.817 483.236 965.239 484.556 964.927 485.967C964.614 487.378 964.574 488.848 964.808 490.278C965.108 491.826 965.597 493.322 966.262 494.721C967.235 496.929 968.402 499.132 970.203 500.548C971.288 501.326 972.456 501.948 973.68 502.399L983.166 506.396C984.562 506.984 985.957 507.572 987.367 508.118C994.447 510.855 1001.83 512.496 1009.31 512.996C1011.58 513.235 1013.88 513.105 1016.12 512.61C1016.66 512.531 1017.16 512.231 1017.51 511.767C1017.69 511.415 1017.8 511.021 1017.82 510.615L1018.41 506.045C1018.54 505.408 1018.52 504.745 1018.36 504.118C1018.01 503.381 1017.46 502.796 1016.78 502.456C1010.55 498.45 1003.26 496.239 998.015 490.741C996.779 489.446 995.745 487.394 994.244 486.515C992.541 485.518 990.536 484.949 988.776 484.03C984.929 482.021 981.147 479.713 976.977 478.641Z" fill="#2F2E41"/>
<path opacity="0.1" d="M986.447 484.803C989.8 485.978 1003.95 494.12 1006.38 496.962C1006.06 497.093 995.022 490.176 994.69 490.065C991.655 489.133 988.683 487.961 985.796 486.559C985.221 486.262 982.061 484.863 982.204 484.052C982.365 483.136 985.852 484.594 986.447 484.803Z" fill="black"/>
<path d="M1028.28 515.367C1028.47 515.382 1028.65 515.32 1028.81 515.192C1028.87 515.096 1028.92 514.986 1028.95 514.868C1028.98 514.751 1028.99 514.628 1028.97 514.508L1028.96 508.281C1027.32 507.521 1025.58 507.053 1023.81 506.891L1015.61 505.665C1015.8 505.693 1014.33 509.616 1014.55 510.14C1014.95 511.063 1017.99 511.881 1018.84 512.317C1021.82 513.832 1024.92 515.497 1028.28 515.367Z" fill="#FFB8B8"/>
<path d="M1002.55 508.259C1001 508.535 999.269 508.779 998.266 510.127C996.994 511.837 997.536 514.386 998.142 516.503C998.179 516.777 998.265 517.039 998.394 517.275C998.523 517.511 998.693 517.715 998.894 517.876C999.095 518.037 999.323 518.151 999.564 518.211C999.806 518.272 1000.06 518.278 1000.3 518.229C1001.71 518.329 1003.21 518.407 1004.45 517.632C1005.01 517.219 1005.54 516.772 1006.06 516.292C1006.97 515.615 1007.97 515.104 1009.02 514.777C1010.96 514.096 1012.95 513.637 1014.97 513.406C1015.76 513.366 1016.55 513.21 1017.31 512.944C1017.69 512.807 1018.04 512.574 1018.32 512.264C1018.61 511.953 1018.83 511.573 1018.96 511.152C1019.25 510.021 1018.66 508.867 1018.1 507.874C1017.45 506.575 1016.6 505.409 1015.6 504.426C1014.07 503.099 1013.32 504.118 1011.78 504.968C1008.87 506.576 1005.75 507.685 1002.55 508.259Z" fill="#FFB8B8"/>
<path d="M998.499 509.819L988.668 506.569C987.488 506.109 986.256 505.842 985.009 505.776C984.385 505.747 983.762 505.868 983.182 506.13C982.603 506.392 982.08 506.789 981.649 507.295C980.887 508.296 980.668 509.664 980.478 510.962L980.072 513.737C979.801 515.137 979.724 516.574 979.844 518C979.91 518.713 980.12 519.4 980.458 520.008C980.796 520.617 981.255 521.131 981.797 521.511C983.158 522.342 984.825 521.936 986.344 521.589C989.411 520.888 992.53 520.513 995.661 520.471C996.837 520.456 998.072 520.472 999.112 519.856C999.715 519.455 1000.22 518.896 1000.59 518.227C1000.96 517.558 1001.17 516.798 1001.21 516.015C1001.41 513.644 1000.7 510.547 998.499 509.819Z" fill="#2F2E41"/>
<path d="M1032.14 506.987C1033.41 506.737 1034.54 505.926 1035.76 505.448C1037.48 504.775 1039.34 504.775 1041.16 504.782C1041.83 504.714 1042.51 504.865 1043.1 505.216C1043.9 505.814 1044.11 507.009 1044.24 508.077L1045.07 514.516C1045.29 515.717 1045.31 516.953 1045.14 518.163C1045.04 518.768 1044.8 519.332 1044.45 519.799C1044.09 520.265 1043.63 520.616 1043.11 520.815C1041.82 521.189 1040.56 520.27 1039.35 519.666C1036.31 518.158 1032.79 518.544 1029.62 517.416C1029.32 517.349 1029.04 517.21 1028.78 517.009C1028.53 516.808 1028.32 516.55 1028.17 516.252C1028.06 515.895 1028.02 515.515 1028.06 515.14C1028.11 513.07 1027.72 510.244 1028.28 508.266C1028.78 506.487 1030.72 506.987 1032.14 506.987Z" fill="#2F2E41"/>
<path d="M1052.95 476.049C1054.91 475.498 1056.95 475.343 1058.96 475.59C1060.57 475.788 1062.22 476.288 1063.4 477.533C1064.83 479.048 1065.29 481.391 1065.32 483.593C1065.39 487.979 1064.09 492.253 1061.65 495.685C1061.05 496.553 1060.34 497.316 1059.54 497.95C1058.68 498.552 1057.76 499.047 1056.81 499.425L1035.56 508.797C1029.97 511.262 1024.37 513.735 1018.54 515.361C1018.38 515.447 1018.2 515.496 1018.03 515.506C1017.85 515.516 1017.67 515.487 1017.51 515.419C1017.34 515.352 1017.19 515.248 1017.06 515.113C1016.93 514.979 1016.82 514.817 1016.75 514.636C1014.89 511.663 1013.33 508.468 1012.1 505.11C1012.04 505.03 1012 504.936 1011.98 504.835C1011.96 504.734 1011.96 504.63 1011.99 504.53C1012.01 504.431 1012.06 504.34 1012.12 504.265C1012.18 504.189 1012.26 504.132 1012.35 504.098L1027.37 494.441C1028.48 493.799 1029.5 493.007 1030.43 492.085C1031.08 491.381 1031.61 490.553 1032 489.639C1032.31 488.912 1032.34 487.195 1032.74 486.657C1033.13 486.13 1034.46 486.088 1035.08 485.881C1035.95 485.584 1036.8 485.224 1037.62 484.805C1040.98 483.123 1043.98 480.68 1047.2 478.71C1049.01 477.555 1050.94 476.661 1052.95 476.049Z" fill="#2F2E41"/>
<path opacity="0.1" d="M1044.43 483.261C1041.85 485.429 1038.5 487.423 1035.95 489.649C1035.07 490.408 1020.52 499.562 1020.31 500.778C1022.7 501.228 1037.9 489.33 1040.08 488.143C1042.22 486.871 1044.23 485.355 1046.09 483.619C1046.58 483.196 1048.64 481.923 1047.24 481.449C1046.46 481.183 1045.01 482.827 1044.43 483.261Z" fill="black"/>
<path d="M1030.27 382.601L1018.77 375.868L1002.9 378.622L999.619 394.845L1007.79 394.493L1010.08 388.533V394.395L1013.85 394.232L1016.04 384.744L1017.41 394.845L1030.81 394.539L1030.27 382.601Z" fill="#2F2E41"/>
<path d="M1027.7 415.88H1002.97V449.267H1027.7V415.88Z" fill="#3F3D56"/>
<path d="M991.23 473.948C991.75 474.937 992.488 475.759 993.375 476.335C993.956 476.632 994.591 476.777 995.23 476.758C995.869 476.739 996.496 476.556 997.063 476.225C998.194 475.546 999.12 474.507 999.724 473.24C1000.97 470.773 1001.23 467.821 1001.08 464.991C1000.92 462.161 1000.38 459.374 1000.14 456.552C999.967 454.5 999.953 452.436 999.939 450.375C999.896 449.941 999.977 449.504 1000.17 449.126C1000.5 448.754 1000.94 448.513 1001.4 448.437C1003.92 447.6 1005.6 444.957 1006.8 442.339C1007.6 440.591 1008.29 438.68 1008.14 436.724C1007.99 434.767 1006.73 432.796 1004.98 432.597C1003.54 432.432 1002.21 433.455 1001.17 434.583C998.552 437.446 996.867 441.211 996.39 445.273C996.162 447.263 996.227 449.306 995.744 451.237C994.711 455.361 991.479 457.889 989.869 461.6C988.094 465.689 989.073 470.33 991.23 473.948Z" fill="#FFB8B8"/>
<path d="M1038.79 458.194C1038.42 459.15 1037.88 460.015 1037.21 460.736C1036.54 461.457 1035.75 462.021 1034.88 462.393C1033.8 462.879 1032.61 462.96 1031.48 462.626C1030.92 462.453 1030.41 462.138 1029.98 461.706C1029.55 461.275 1029.21 460.737 1028.99 460.137C1028.82 459.531 1028.73 458.902 1028.71 458.267C1028.55 455.486 1028.61 452.62 1029.52 450.023C1029.87 449.021 1030.34 448.071 1030.61 447.041C1030.88 445.852 1031.02 444.63 1031.02 443.403L1031.32 435.815C1031.37 435.264 1031.33 434.708 1031.22 434.17C1030.92 433.072 1030 432.359 1029.16 431.704C1027.13 430.123 1025.12 428.278 1024.14 425.737C1023.8 424.972 1023.68 424.109 1023.79 423.265C1024.07 421.758 1025.43 420.783 1026.77 420.454C1027.65 420.239 1028.56 420.226 1029.44 420.414C1030.33 420.602 1031.17 420.989 1031.91 421.55C1032.66 422.112 1033.3 422.837 1033.79 423.681C1034.28 424.526 1034.61 425.472 1034.76 426.464C1034.9 427.32 1034.89 428.195 1034.97 429.06C1035.14 430.894 1035.66 432.662 1035.98 434.469C1036.78 438.921 1036.37 443.522 1037.16 447.973C1037.83 451.694 1040.33 454.122 1038.79 458.194Z" fill="#FFB8B8"/>
<path d="M1015.97 432.254C1018.19 432.254 1019.99 430.242 1019.99 427.76C1019.99 425.278 1018.19 423.266 1015.97 423.266C1013.75 423.266 1011.95 425.278 1011.95 427.76C1011.95 430.242 1013.75 432.254 1015.97 432.254Z" fill="#FF966E"/>
<path d="M90.7318 484.732H77.3242V499.822H90.7318V484.732Z" fill="#FF966E"/>
<path d="M98.6459 469.847H85.2383V484.936H98.6459V469.847Z" fill="#FF966E"/>
<path d="M107.408 484.763H94V499.852H107.408V484.763Z" fill="#FF966E"/>
<path d="M145.245 484.732H131.838V499.822H145.245V484.732Z" fill="#FF966E"/>
<path d="M119.65 479.771L107.219 485.441L112.228 499.431L124.659 493.761L119.65 479.771Z" fill="#FF966E"/>
<path d="M102.944 450L90.5137 455.67L95.5234 469.66L107.954 463.99L102.944 450Z" fill="#FF966E"/>
<path d="M46.4231 478.778L36 488.269L44.4335 500L54.8566 490.509L46.4231 478.778Z" fill="#FF966E"/>
</svg>
